<?xml version="1.0" encoding="UTF-8" standalone="no"?><!DOCTYPE svg PUBLIC "-//W3C//DTD SVG 1.1//EN" "http://www.w3.org/Graphics/SVG/1.1/DTD/svg11.dtd"><svg width="100%" height="100%" viewBox="0 0 194 194" version="1.1" xmlns="http://www.w3.org/2000/svg" xmlns:xlink="http://www.w3.org/1999/xlink" xml:space="preserve" xmlns:serif="http://www.serif.com/" style="fill-rule:evenodd;clip-rule:evenodd;stroke-linejoin:round;stroke-miterlimit:2;"><g id="assurances"><g id="logo-nb" serif:id="logo nb"><g><path d="M193.75,6.666c0,-3.754 -3.048,-6.801 -6.802,-6.801l-180.146,-0c-3.754,-0 -6.802,3.047 -6.802,6.801l0,180.147c0,3.754 3.048,6.802 6.802,6.802l180.146,-0c3.754,-0 6.802,-3.048 6.802,-6.802l0,-180.147Z" style="fill:#7e8f9e;"/><g><path d="M12.903,159.665c-0.826,0 -1.558,-0.294 -2.175,-0.882c-0.631,-0.596 -0.947,-1.343 -0.947,-2.218c-0,-0.546 0.129,-1.091 0.388,-1.622l17.64,-29.533c0.452,-0.739 0.998,-1.291 1.629,-1.657c1.27,-0.725 2.742,-0.725 3.998,-0c0.638,0.366 1.169,0.933 1.593,1.672l17.662,29.367c0.237,0.316 0.387,0.653 0.452,1.012c0.05,0.302 0.079,0.553 0.079,0.761c0,0.911 -0.33,1.679 -0.954,2.218c-0.596,0.516 -1.314,0.782 -2.125,0.782c-0.423,-0 -0.868,-0.122 -1.32,-0.366c-0.438,-0.23 -0.833,-0.582 -1.163,-1.041l-0.043,-0.057l-4.816,-8.002l-22.635,-0l-4.859,8.095c-0.323,0.495 -0.696,0.854 -1.134,1.098c-0.445,0.244 -0.868,0.373 -1.27,0.373Zm10.6,-15.322l15.839,-0l-7.83,-13.966l-8.009,13.966Z" style="fill:#fff;fill-rule:nonzero;"/><path d="M63.427,159.665c-1.873,0 -2.949,-1.055 -2.949,-2.906l-0,-30.552c-0,-1.844 1.062,-2.907 2.906,-2.907c1.873,0 2.95,1.063 2.95,2.907l-0,30.552c-0.007,1.844 -1.062,2.906 -2.907,2.906Z" style="fill:#fff;fill-rule:nonzero;"/><path d="M77.896,174.392c-1.845,0 -2.907,-1.077 -2.907,-2.957l0,-31.449c0,-5.54 4.062,-8.346 12.086,-8.346l8.167,-0c8.396,-0 12.653,2.777 12.653,8.253l0,10.837c0,5.763 -3.847,8.691 -11.425,8.691l-15.632,0l0,12.014c0.007,1.873 -1.069,2.957 -2.942,2.957Zm2.942,-20.54l16.335,0c4.285,0 4.78,-1.758 4.78,-3.079l-0,-10.787c-0,-0.703 -0,-2.834 -6.014,-2.834l-9.352,-0c-5.749,-0 -5.749,2.203 -5.749,2.928l0,13.772Z" style="fill:#fff;fill-rule:nonzero;"/><path d="M120.339,159.665c-1.887,0 -2.97,-1.055 -2.97,-2.906l-0,-19.607l-1.314,-0c-1.622,-0 -2.556,-1.027 -2.556,-2.806c0,-1.723 0.934,-2.713 2.556,-2.713l1.314,-0l-0,-5.433c-0,-1.845 1.098,-2.907 3.013,-2.907c1.801,0 2.842,1.062 2.842,2.907l0,5.433l7.766,-0c1.621,-0 2.554,1.004 2.554,2.756c0,1.751 -0.933,2.755 -2.554,2.755l-7.766,0l0,19.607c-0.007,1.852 -1.054,2.914 -2.885,2.914Z" style="fill:#fff;fill-rule:nonzero;"/><path d="M141.59,159.665c-1.816,0 -2.863,-1.055 -2.863,-2.906l-0,-20.792c-0,-1.787 1.011,-2.806 2.77,-2.806c1.873,0 2.949,1.027 2.949,2.806l0,20.792c0.008,1.844 -1.033,2.906 -2.856,2.906Zm-0.172,-29.848c-3.137,-0 -3.603,-2.067 -3.603,-3.294c-0,-1.235 0.466,-3.302 3.603,-3.302c3.293,0 3.782,2.067 3.782,3.302c0,1.227 -0.495,3.294 -3.782,3.294Z" style="fill:#fff;fill-rule:nonzero;"/><path d="M173.935,158.854l-18.006,0c-1.708,0 -2.683,-0.99 -2.683,-2.713c-0,-1.815 0.975,-2.856 2.683,-2.856l18.753,0c2.72,0 3.064,-1.17 3.064,-2.196l0,-1.565c0,-0.574 0,-2.095 -3.552,-2.095l-9.918,-0c-4.895,-0 -10.722,-1.285 -10.722,-7.414l-0,-1.765c-0,-3.273 1.787,-7.17 10.284,-7.17l5.009,0c1.68,0 2.641,1.005 2.641,2.763c0,1.751 -0.961,2.756 -2.641,2.756l-6.014,0c-3.424,0 -3.424,1.242 -3.424,1.651l0,1.665c0,0.509 0,2.052 4.157,2.052l10.125,0c8.304,0 10.048,4.113 10.048,7.565l0,1.564c-0.007,3.538 -1.708,7.758 -9.804,7.758Z" style="fill:#fff;fill-rule:nonzero;"/></g><g><path d="M145.237,70.833c0,26.775 -21.702,48.477 -48.477,48.477c-26.775,0 -48.477,-21.702 -48.477,-48.477c-0,-26.775 21.702,-48.477 48.477,-48.477c26.775,-0 48.477,21.702 48.477,48.477Z" style="fill:#fff;fill-rule:nonzero;"/><path d="M93.375,96.73c-6.953,-0 -15.137,-5.847 -21.896,-15.638c-8.697,-12.607 -10.236,-26.695 -3.431,-31.403c1.812,-1.254 4.092,-1.904 6.588,-1.904c5.745,0 14.009,3.568 20.015,13.599l0.171,0.296l-1.858,3.112l-0.513,-0.65c-5.117,-6.463 -10.805,-10.156 -15.615,-10.156c-1.676,0 -3.18,0.456 -4.491,1.357c-2.508,1.732 -3.591,5.266 -3.044,9.939c0.559,4.81 2.77,10.213 6.213,15.205c5.368,7.786 12.925,13.017 18.784,13.017c1.55,0 2.895,-0.387 3.99,-1.139l0.387,-0.274l0.331,0.331c0.079,0.079 0.741,0.752 0.604,1.641c-0.091,0.615 -0.525,1.117 -1.288,1.504c-1.482,0.776 -3.146,1.163 -4.947,1.163Z" style="fill:#7e8f9e;fill-rule:nonzero;"/><path d="M96.555,102.84c-1.698,-0 -3.294,-0.365 -4.73,-1.095c-0.833,-0.421 -1.357,-0.98 -1.528,-1.653c-0.239,-0.877 0.194,-1.572 0.251,-1.652l0.319,-0.49l0.479,0.33c1.048,0.707 2.325,1.072 3.818,1.072c6.224,-0 15.24,-6.349 21.441,-15.103c5.186,-7.306 7.762,-15.445 6.725,-21.235c-0.456,-2.508 -1.539,-4.366 -3.237,-5.517c-1.163,-0.787 -2.588,-1.185 -4.252,-1.185c-5.836,-0 -13.53,4.821 -19.149,11.991l-0.502,0.638l-1.732,-2.724l0.159,-0.297c0.046,-0.091 0.627,-1.003 1.14,-1.767l1.459,-1.994c5.836,-7.5 14.134,-12.345 21.167,-12.345c2.473,0 4.593,0.593 6.326,1.767c2.257,1.527 3.75,4.058 4.343,7.306c1.288,7.147 -1.824,17.109 -8.139,26c-7.979,11.25 -17.086,17.953 -24.358,17.953Z" style="fill:#7e8f9e;fill-rule:nonzero;"/></g></g><g><g id="layer101"></g><g id="layer102"></g><g id="layer103"></g></g></g></g></svg>