<?xml version="1.0" encoding="UTF-8" standalone="no"?><!DOCTYPE svg PUBLIC "-//W3C//DTD SVG 1.1//EN" "http://www.w3.org/Graphics/SVG/1.1/DTD/svg11.dtd"><svg width="100%" height="100%" viewBox="0 0 200 194" version="1.1" xmlns="http://www.w3.org/2000/svg" xmlns:xlink="http://www.w3.org/1999/xlink" xml:space="preserve" xmlns:serif="http://www.serif.com/" style="fill-rule:evenodd;clip-rule:evenodd;stroke-linejoin:round;stroke-miterlimit:2;"><g id="assurances"><g id="logo-nb" serif:id="logo nb"><g><path d="M7.351,145.088c-0.005,0 -0.011,0 -0.016,0c-1.24,0 -2.261,1.021 -2.261,2.261c0,0.098 0.007,0.197 0.02,0.294c-0.013,0.095 -0.019,0.191 -0.019,0.286c-0,1.201 0.988,2.189 2.189,2.189c0.022,0 0.045,-0 0.068,-0.001c0.006,0 0.012,0 0.018,0c1.262,0 2.301,-1.039 2.301,-2.301c-0,-0.105 -0.007,-0.209 -0.022,-0.313c0.008,-0.076 0.012,-0.152 0.012,-0.228c0,-1.201 -0.988,-2.189 -2.188,-2.189c-0.034,0 -0.068,0.001 -0.102,0.002Zm1.635,14.08l-3.164,-0c-1.13,-0 -1.795,0.664 -1.795,1.469c-0,1.185 1.652,1.588 3.487,1.588c2.6,0 4.032,-0.422 4.032,-1.83c0,-1.408 -0.785,-1.206 -2.48,-1.206l-0.08,-0.021Zm4.111,-15.004c1.065,0.945 1.656,2.317 1.612,3.74c0,2.495 -1.814,5.472 -7.297,5.472l-1.491,0c-0.233,0.263 -0.393,0.581 -0.464,0.925c-0,0.481 0.523,0.824 1.653,0.824l3.225,-0c3.73,-0 6.048,1.488 6.048,4.867c-0,4.024 -3.931,5.732 -8.79,5.732c-5.603,0 -8.547,-1.347 -8.547,-4.143c-0,-1.789 1.472,-2.997 4.032,-3.359c-1.735,-0.544 -2.016,-1.488 -2.016,-2.454c0.128,-1.277 0.885,-2.409 2.016,-3.016c-1.989,-0.861 -3.211,-2.91 -3.024,-5.069c-0,-3.54 2.742,-5.894 7.379,-5.894c1.486,-0.035 2.96,0.288 4.292,0.946c0.565,-1.425 2.026,-2.302 3.549,-2.131l1.189,-0l-0,3.619l-3.366,-0.059Zm10.583,1.326c0.632,-2.102 2.508,-3.604 4.698,-3.76c2.822,0 3.487,1.589 3.487,3.338c-0.03,1.137 -0.234,2.263 -0.604,3.339l-3.427,-0l-0,-2.917c-2.541,-0 -3.872,1.811 -3.872,6.035l-0,3.077c0.969,-0.264 1.962,-0.425 2.964,-0.482l0.464,0l0,3.921l-10.201,0l0,-3.055c0.562,-0.416 1.189,-0.736 1.856,-0.948l0,-7.943c-0.703,-0.078 -1.386,-0.283 -2.016,-0.605l0,-3.358l6.611,-0l0,0.985c-0.012,0.807 -0.148,1.607 -0.403,2.373l0.443,-0Zm21.289,4.728c-0,-3.058 -1.13,-4.989 -3.085,-4.989c-1.955,0 -3.104,2.011 -3.104,4.989c0,2.976 1.149,4.806 3.104,4.806c1.955,-0 3.085,-1.79 3.085,-4.806m-11.188,-0c-0,-5.392 2.801,-8.429 8.063,-8.429c5.261,0 8.064,3.058 8.064,8.429c-0,5.369 -2.864,8.267 -8.064,8.267c-5.201,-0 -8.063,-3.018 -8.063,-8.267m29.774,-4.003c-0.776,-0.137 -1.529,-0.381 -2.238,-0.725l0,-3.358l6.753,-0l0,11.946l2.016,0l0,3.2c-0.821,0.841 -1.971,1.282 -3.144,1.207c-1.277,0.126 -2.478,-0.667 -2.863,-1.891c-0.151,-0.435 -0.239,-0.889 -0.261,-1.348l-0.263,0c-0.744,2.026 -2.724,3.347 -4.879,3.258c-1.381,0.16 -2.764,-0.304 -3.77,-1.264c-1.004,-0.959 -1.529,-2.319 -1.43,-3.704l-0,-7.321c-0.736,-0.142 -1.448,-0.386 -2.117,-0.725l0,-3.358l7.016,-0l-0,10.82c0.645,0.627 1.52,0.96 2.419,0.926c1.539,-0.065 2.769,-1.349 2.769,-2.89c-0,-0.069 -0.003,-0.138 -0.008,-0.207l0,-4.566Zm16.934,-0.603c-0.039,-0.002 -0.078,-0.003 -0.118,-0.003c-1.37,-0 -2.506,1.107 -2.543,2.476l0,6.336c0.78,0.264 1.595,0.4 2.419,0.403c2.016,-0 3.669,-1.328 3.669,-4.688c0,-2.192 -0.928,-4.524 -3.427,-4.524Zm-2.822,-0.864c0.847,-1.904 2.8,-3.088 4.88,-2.959c4.031,0 6.449,3.28 6.449,7.805c-0,5.531 -3.085,8.891 -8.345,8.891c-0.931,0.008 -1.857,-0.135 -2.743,-0.423l0,3.399c0.684,-0.29 1.415,-0.454 2.157,-0.484l0.445,0l-0,3.923l-9.395,0l0,-3.097c0.572,-0.412 1.204,-0.731 1.875,-0.946l0,-14.762c-0.703,-0.078 -1.386,-0.283 -2.016,-0.605l0,-3.358l6.693,-0l-0,0.744c0.031,0.646 -0.101,1.29 -0.384,1.872l0.384,-0Zm18.324,3.961c1.802,0.108 3.609,-0.055 5.363,-0.483c0.013,-0.141 0.013,-0.282 -0,-0.423c0.005,-0.061 0.007,-0.123 0.007,-0.184c0,-1.29 -1.061,-2.351 -2.35,-2.351c-0.019,0 -0.038,0.001 -0.057,0.001c-0.874,0.016 -1.701,0.403 -2.274,1.063c-0.572,0.658 -0.838,1.53 -0.729,2.396m9.233,5.291l0.464,3.318c-1.977,0.804 -4.097,1.194 -6.23,1.148c-5.019,-0 -8.446,-2.917 -8.446,-8.046c-0,-6.557 4.273,-8.669 8.427,-8.669c1.738,-0.171 3.466,0.434 4.718,1.651c1.25,1.216 1.9,2.925 1.773,4.664c0.034,0.831 -0.04,1.662 -0.223,2.474c-3.177,0.853 -6.482,1.126 -9.756,0.804c-0,2.496 1.793,3.501 4.88,3.501c1.488,-0.048 2.96,-0.339 4.351,-0.864m18.689,-16.937l4.234,12.289l4.536,-12.289l8.185,0l-0,3.118c-0.633,0.377 -1.31,0.674 -2.016,0.885l-0,13.616c0.635,-0.295 1.318,-0.472 2.016,-0.522l0.342,0l0,3.921l-8.851,0l0,-3.097c0.632,-0.394 1.309,-0.711 2.016,-0.944l0,-12.271l-4.838,13.557l-3.629,0l-4.535,-13.274l-0,12.61c0.634,-0.295 1.317,-0.472 2.016,-0.523l0.344,0l-0,3.923l-8.226,0l0,-3.078c0.629,-0.4 1.306,-0.717 2.016,-0.944l0,-12.975c-0.706,-0.211 -1.383,-0.508 -2.016,-0.884l0,-3.118l8.406,0Zm24.051,15.649c-0,1.528 0.947,2.011 2.318,2.011c1.386,-0.059 2.517,-1.17 2.6,-2.555l-0,-1.328c-1.573,0.029 -3.139,0.211 -4.677,0.544c-0.146,0.407 -0.228,0.835 -0.241,1.267m9.817,-5.491l-0,6.859l2.016,0l-0,3.198c-0.822,0.841 -1.972,1.282 -3.146,1.207c-1.537,0.105 -2.894,-1.059 -3.024,-2.595c-0.014,-0.221 -0.014,-0.443 0,-0.664l-0.403,-0c-0.662,2.108 -2.716,3.486 -4.918,3.299c-3.427,-0 -5.342,-1.79 -5.342,-4.586c-0,-3.801 2.278,-5.129 9.919,-5.531l0,-0.985c0.001,-0.014 0.001,-0.028 0.001,-0.042c-0,-1.102 -0.907,-2.009 -2.01,-2.009c-0.131,-0 -0.262,0.013 -0.391,0.038c-0.807,0.012 -1.603,0.19 -2.339,0.523l0,2.293l-3.427,0c-0.482,-0.559 -0.746,-1.273 -0.745,-2.011c-0,-2.011 1.491,-4.344 6.753,-4.344c4.817,0 7.077,2.011 7.077,5.43m13.284,1.791l-0,-2.816c-0.41,-0.611 -1.123,-0.951 -1.856,-0.885c-1.491,-0 -3.123,1.026 -3.123,4.425c-0,3.399 1.592,4.928 4.496,4.928c1.103,-0.007 2.186,-0.298 3.144,-0.845l1.148,3.338c-1.65,0.929 -3.53,1.376 -5.422,1.288c-5.019,-0 -8.366,-2.736 -8.366,-8.347c-0.209,-2.218 0.563,-4.419 2.112,-6.021c1.55,-1.603 3.725,-2.453 5.952,-2.326c4.616,0 5.887,2.293 5.887,4.365c0.046,0.994 -0.141,1.986 -0.545,2.896l-3.427,-0Zm9.817,-8.91c-0.729,0.061 -1.449,-0.201 -1.969,-0.716c-0.52,-0.514 -0.787,-1.231 -0.732,-1.96c-0.076,-0.73 0.181,-1.457 0.701,-1.975c0.52,-0.52 1.248,-0.776 1.981,-0.7c0.078,-0.007 0.156,-0.011 0.235,-0.011c1.388,0 2.531,1.143 2.531,2.532c0,0.051 -0.002,0.103 -0.005,0.154c0.001,0.026 0.001,0.051 0.001,0.076c0,1.428 -1.175,2.603 -2.603,2.603c-0.046,0 -0.093,-0.001 -0.14,-0.003Zm2.602,14.541c0.52,-0.288 1.099,-0.452 1.692,-0.483l0.343,0l-0,3.923l-8.768,0l0,-3.118c0.567,-0.382 1.175,-0.698 1.813,-0.944l-0,-8.048c-0.703,-0.076 -1.386,-0.28 -2.016,-0.601l-0,-3.259l6.896,-0l0.04,12.53Zm12.538,-16.13c-1.694,-0 -2.358,0.544 -2.358,2.553l-0,1.026l3.488,-0l-0,3.379l-3.488,-0l-0,9.132c0.882,-0.275 1.796,-0.438 2.72,-0.483l0.464,0l-0,3.923l-9.878,0l-0,-3.078c0.568,-0.381 1.176,-0.698 1.814,-0.944l0,-8.55l-1.814,-0l-0,-3.358l1.814,-0l0,-0.483c0,-4.464 2.218,-6.96 6.512,-6.96c1.324,-0.046 2.637,0.252 3.811,0.865l-0,2.997l-3.085,-0.019Zm-181.735,-31.477l0.422,-0.866c1.374,-2.759 2.593,-5.592 3.65,-8.488l0.122,0c1.039,2.892 2.238,5.725 3.587,8.488l0.444,0.864l-8.225,0l0,0.002Zm5.403,-23.555l-2.28,0l-18.303,35.18l9.576,-0l2.278,-4.747l14.815,-0l2.339,4.747l9.819,-0l-18.244,-35.18Zm40.378,16.654l-7.155,0l-0,-9.11l6.915,0c3.71,0 5.241,1.528 5.241,4.686c0,3.157 -2.016,4.424 -5,4.424m0.747,-16.614l-16.735,0l0,35.14l8.829,-0l-0,-11.405l8.265,0c7.58,0 12.782,-4.364 12.782,-11.807c-0,-7.441 -4.939,-11.827 -13.144,-11.827m19.575,-0.08l8.831,0l-0,35.138l-8.831,0l0,-35.138Zm40.904,11.646c-1.049,2.272 -2.158,4.686 -3.447,8.185l-0.122,0c-1.29,-3.499 -2.398,-5.913 -3.386,-8.185l-5.383,-11.667l-10.08,0l17.721,36.205l1.854,0l17.74,-36.205l-9.474,0l-5.424,11.667l0.001,0Zm23.343,-11.646l8.831,0l-0,35.138l-8.831,0l0,-35.138Zm31.268,22.628c1.373,-2.759 2.591,-5.593 3.648,-8.488l0.121,0c1.043,2.892 2.241,5.726 3.589,8.488l0.424,0.864l-8.206,0l0.424,-0.864Zm-3.769,7.763l14.815,0l2.339,4.747l9.819,0l-17.942,-35.199l-2.865,0l-17.92,35.18l9.475,-0l2.279,-4.728Z" style="fill:#8292a1;fill-rule:nonzero;"/><path d="M199.046,73.706c-22.217,-30.412 -58.646,-48.152 -100.454,-48.152c-41.811,-0 -82.209,20.556 -99.546,48.152l3.125,-0c24.474,-20.709 55.532,-32.055 87.591,-32.001c33.687,0 55.579,14.08 71.605,32.001l37.679,-0Z" style="fill:#abb6c0;"/></g><g><g id="layer101"></g><g id="layer102"></g><g id="layer103"></g></g></g></g></svg>