<?xml version="1.0" encoding="UTF-8" standalone="no"?><!DOCTYPE svg PUBLIC "-//W3C//DTD SVG 1.1//EN" "http://www.w3.org/Graphics/SVG/1.1/DTD/svg11.dtd"><svg width="100%" height="100%" viewBox="0 0 200 194" version="1.1" xmlns="http://www.w3.org/2000/svg" xmlns:xlink="http://www.w3.org/1999/xlink" xml:space="preserve" xmlns:serif="http://www.serif.com/" style="fill-rule:evenodd;clip-rule:evenodd;stroke-linejoin:round;stroke-miterlimit:2;"><g id="assurances"><g id="logo-nb" serif:id="logo nb"><g><g id="layer101"></g><g id="layer102"></g><g id="layer103"></g></g><g><g><g><path d="M200,114.654c-30.401,-0 -54.698,-24.417 -54.698,-54.578l31.119,-0c12.927,-0 23.579,10.532 23.579,23.578l0,31Z" style="fill:url(#_Radial1);fill-rule:nonzero;"/><path d="M172.711,87.365c-0,-45.362 -36.745,-81.987 -81.987,-81.987l0,58.887c0,12.687 10.413,23.219 23.22,23.219l58.767,0l-0,-0.119Z" style="fill:url(#_Radial2);fill-rule:nonzero;"/><path d="M168.043,60.076l-22.741,-0c0,9.934 2.633,19.27 7.301,27.289l20.108,-0c-0,-9.575 -1.676,-18.672 -4.668,-27.289Z" style="fill:url(#_Radial3);fill-rule:nonzero;"/></g></g><path d="M135.966,123.032c0,-2.274 -0.837,-4.189 -2.393,-5.865c-1.317,-1.316 -2.993,-2.154 -4.788,-2.394l-0.718,-0.119l0,36.505c0,2.154 1.795,3.95 3.95,3.95c2.154,-0 3.949,-1.796 3.949,-3.95l0,-28.127Zm-16.038,-8.139l-8.737,0c-5.625,0 -10.413,1.915 -14.363,5.865c-4.069,3.95 -5.984,8.617 -5.984,14.243l-0,20.227l0.718,-0.119c1.795,-0.24 3.351,-0.958 4.787,-2.394c1.676,-1.676 2.394,-3.591 2.394,-5.865l0,-11.969c0,-3.471 1.197,-6.463 3.591,-8.857c2.394,-2.513 5.386,-3.71 8.857,-3.71l8.737,-0c2.035,-0 3.711,-1.676 3.711,-3.711c-0,-2.154 -1.676,-3.71 -3.711,-3.71Zm53.022,39.497c-0.239,-1.675 -0.957,-3.111 -2.154,-4.428c-1.556,-1.556 -3.351,-2.274 -5.506,-2.274l-3.949,-0c-3.471,-0 -6.464,-1.317 -8.857,-3.71c-2.394,-2.514 -3.591,-5.506 -3.591,-8.857l-0,-16.518c-0,-2.154 -1.795,-3.949 -3.95,-3.949c-2.035,-0 -3.71,1.675 -3.95,3.71l0,16.637c0,5.625 2.035,10.293 5.985,14.243c4.069,3.95 8.737,5.865 14.363,5.865l11.729,-0l-0.12,-0.719Zm-138.24,-33.632c-4.07,-3.95 -8.857,-5.865 -14.363,-5.865c-5.625,0 -10.293,1.915 -14.363,5.865c-4.069,3.95 -5.984,8.737 -5.984,14.243c-0,5.625 2.035,10.293 5.984,14.243c4.07,3.95 8.738,5.865 14.363,5.865l20.467,-0l-0,-20.108c-0,-5.506 -2.035,-10.293 -6.104,-14.243Zm-1.796,26.93l-12.567,-0c-3.471,-0 -6.463,-1.317 -8.857,-3.71c-2.394,-2.394 -3.591,-5.386 -3.591,-8.857l0,-0.12c0,-3.471 1.197,-6.463 3.591,-8.977c2.394,-2.513 5.386,-3.83 8.857,-3.83l0.12,0c3.471,0 6.463,1.317 8.857,3.83c2.394,2.514 3.59,5.506 3.59,8.977l0,12.687Z" style="fill:#8c9ba9;fill-rule:nonzero;"/><path d="M80.551,120.758c-4.07,-3.95 -8.857,-5.865 -14.363,-5.865c-5.625,0 -10.293,1.915 -14.363,5.865c-4.069,3.95 -5.984,8.737 -5.984,14.243l-0,34.351l0.718,-0.12c1.795,-0.24 3.351,-0.958 4.787,-2.394c1.676,-1.676 2.394,-3.591 2.394,-5.865l0,-6.104l12.448,0c5.625,0 10.413,-1.915 14.363,-5.865c4.069,-3.949 5.984,-8.617 5.984,-14.243c0,-5.266 -2.035,-10.053 -5.984,-14.003Zm-1.915,14.243c-0,3.471 -1.197,6.463 -3.591,8.977c-2.394,2.513 -5.386,3.71 -8.857,3.71l-12.567,-0l-0,-12.687c-0,-3.471 1.196,-6.463 3.59,-8.857c2.274,-2.394 5.027,-3.591 8.139,-3.71l0,0.119l0.718,-0.119c3.471,-0 6.463,1.316 8.857,3.83c2.394,2.274 3.591,5.266 3.711,8.737Z" style="fill:#8c9ba9;fill-rule:nonzero;"/></g></g></g><defs><radialGradient id="_Radial1" cx="0" cy="0" r="1" gradientUnits="userSpaceOnUse" gradientTransform="matrix(78.4465,0,0,78.4386,144.929,60.1237)"><stop offset="0" style="stop-color:#a3afba;stop-opacity:1"/><stop offset="1" style="stop-color:#a0acb8;stop-opacity:1"/></radialGradient><radialGradient id="_Radial2" cx="0" cy="0" r="1" gradientUnits="userSpaceOnUse" gradientTransform="matrix(116.495,0,0,116.495,90.1975,5.14355)"><stop offset="0" style="stop-color:#96a3b0;stop-opacity:1"/><stop offset="1" style="stop-color:#8d9caa;stop-opacity:1"/></radialGradient><radialGradient id="_Radial3" cx="0" cy="0" r="1" gradientUnits="userSpaceOnUse" gradientTransform="matrix(38.8042,0,0,38.8042,145.153,60.0505)"><stop offset="0" style="stop-color:#9aa7b3;stop-opacity:1"/><stop offset="1" style="stop-color:#8c9ba9;stop-opacity:1"/></radialGradient></defs></svg>