<?xml version="1.0" encoding="UTF-8" standalone="no"?><!DOCTYPE svg PUBLIC "-//W3C//DTD SVG 1.1//EN" "http://www.w3.org/Graphics/SVG/1.1/DTD/svg11.dtd"><svg width="100%" height="100%" viewBox="0 0 200 194" version="1.1" xmlns="http://www.w3.org/2000/svg" xmlns:xlink="http://www.w3.org/1999/xlink" xml:space="preserve" xmlns:serif="http://www.serif.com/" style="fill-rule:evenodd;clip-rule:evenodd;stroke-linejoin:round;stroke-miterlimit:2;"><g id="assurances"><g id="logo-nb" serif:id="logo nb"><g><g id="layer101"></g><g id="layer102"></g><g id="layer103"></g></g><g><g><path d="M99.768,25.49c-17.662,0 -31.912,14.251 -31.912,31.913c-0,17.663 14.25,31.913 31.912,31.913c17.663,0 31.913,-14.25 31.913,-31.913c0,-17.662 -14.25,-31.913 -31.913,-31.913" style="fill:#abb6c0;fill-rule:nonzero;"/><path d="M94.149,40.945l11.039,-0l-0,11.24l11.039,-0l-0,11.039l-11.039,-0l-0,11.24l-11.039,-0l-0,-11.24l-10.839,-0l0,-11.039l10.839,-0l-0,-11.24Z" style="fill:#fff;fill-rule:nonzero;"/><path d="M75.081,96.943l1.004,0.402l2.408,-2.208l5.018,2.208l-0.201,3.01l1.004,0.402l0.803,-11.642l-1.205,-0.401l-8.831,8.229Zm8.43,-0.401l-4.215,-2.007l4.817,-4.416l-0.602,6.423Z" style="fill:#abb6c0;fill-rule:nonzero;"/><path d="M90.536,101.158c0.602,0.401 1.204,0.803 2.408,1.004c1.405,0.2 2.61,-0.402 2.81,-1.807c0.201,-2.007 -4.616,-3.01 -4.215,-5.82c0.201,-1.807 1.807,-2.61 3.814,-2.409c0.602,0 1.405,0.201 2.007,0.602l-0.401,0.803c-0.402,-0.401 -1.205,-0.602 -2.008,-0.602c-1.204,-0.201 -2.408,0.201 -2.609,1.606c-0.201,2.207 4.617,2.81 4.215,5.82c-0.201,2.208 -2.208,2.81 -4.014,2.609c-1.004,-0.2 -1.806,-0.401 -2.409,-0.802l0.402,-1.004Z" style="fill:#abb6c0;fill-rule:nonzero;"/><path d="M102.779,101.76c0.602,0.402 1.405,0.402 2.409,0.402c1.405,-0.201 2.408,-1.004 2.207,-2.61c-0.401,-2.007 -5.419,-1.605 -5.82,-4.415c-0.201,-1.807 1.204,-3.011 3.011,-3.212c0.602,0 1.404,-0.2 2.207,0l0,1.004c-0.602,-0.201 -1.204,-0.201 -2.007,-0.201c-1.204,0.201 -2.208,0.803 -2.007,2.208c0.402,2.208 5.219,1.405 5.821,4.616c0.401,2.208 -1.405,3.212 -3.011,3.412c-1.003,0.201 -2.007,0 -2.609,-0.2l-0.201,-1.004Z" style="fill:#abb6c0;fill-rule:nonzero;"/><path d="M121.445,93.732c1.405,2.81 -0.401,4.616 -1.806,5.218c-1.405,0.602 -4.014,1.004 -5.419,-2.007l-3.212,-6.423l1.004,-0.401l3.211,6.423c0.803,1.605 2.208,2.408 4.014,1.605c1.807,-0.802 2.007,-2.408 1.205,-4.014l-3.212,-6.423l1.004,-0.401l3.211,6.423Z" style="fill:#abb6c0;fill-rule:nonzero;"/><path d="M129.273,92.728l0.803,-0.803l-3.613,-3.612l0.602,-0.603c0.803,-0.602 1.204,-1.003 2.609,-0.401l3.814,1.606l0.803,-0.803l-4.416,-1.807c-0.803,-0.401 -1.204,-0.602 -2.007,0c0.803,-1.003 1.003,-2.408 -0,-3.412c-1.405,-1.405 -3.011,-1.204 -4.416,0l-2.007,1.807l7.828,8.028Zm-6.222,-7.828l0.803,-0.802c1.003,-1.004 2.007,-1.807 3.412,-0.402c1.003,1.004 0.401,2.409 -0.602,3.212l-0.803,0.802l-2.81,-2.81Z" style="fill:#abb6c0;fill-rule:nonzero;"/><path d="M138.104,84.098l0.602,-0.803l-2.007,-2.409l2.81,-4.616l3.211,0.401l0.603,-1.003l-11.842,-1.807l-0.602,1.004l7.225,9.233Zm0.201,-8.029l-2.409,4.014l-4.215,-5.017l6.624,1.003Z" style="fill:#abb6c0;fill-rule:nonzero;"/><path d="M134.291,67.439l0.2,-1.205l10.839,-3.412l-9.634,-1.806l0.2,-1.004l10.839,2.007l-0.201,1.405l-10.638,3.413l9.434,1.806l-0.201,1.003l-10.838,-2.207Z" style="fill:#abb6c0;fill-rule:nonzero;"/><path d="M136.498,48.572c-0.2,0.602 -0.401,1.606 -0.2,2.408c0.401,2.81 2.609,4.015 5.218,3.814c2.81,-0.201 4.617,-2.007 4.416,-4.817c-0,-0.602 -0.201,-1.807 -0.803,-2.208l1.004,-0.201c0.401,0.602 0.602,1.606 0.802,2.409c0.402,3.211 -1.806,5.419 -5.218,5.82c-3.412,0.402 -6.021,-1.405 -6.423,-4.616c0,-0.602 0,-1.806 0.201,-2.408l1.003,-0.201Z" style="fill:#abb6c0;fill-rule:nonzero;"/><path d="M133.889,44.357l-2.007,-4.817l0.803,-0.401l1.606,3.813l3.813,-1.405l-1.606,-3.613l1.004,-0.401l1.405,3.613l4.014,-1.606l-1.605,-3.814l0.802,-0.401l2.208,4.817l-10.437,4.215Z" style="fill:#abb6c0;fill-rule:nonzero;"/><path d="M137.703,30.508c-0,-0.803 -0.402,-1.405 -1.004,-2.208c-0.803,-1.003 -2.007,-1.405 -3.412,-0.602c-1.806,1.204 1.004,5.218 -1.405,7.025c-1.405,1.003 -3.211,0.602 -4.416,-1.004c-0.401,-0.401 -0.802,-1.204 -1.003,-1.806l1.204,-0.602c0,0.602 0.402,1.204 0.803,1.806c0.602,0.803 1.806,1.606 3.011,0.602c1.806,-1.204 -1.205,-5.218 1.405,-7.025c1.806,-1.405 3.612,-0.401 4.616,1.004c0.602,0.803 1.004,1.606 1.004,2.208l-0.803,0.602Z" style="fill:#abb6c0;fill-rule:nonzero;"/><path d="M90.134,110.792c-3.813,-1.606 -8.429,-3.412 -12.042,-5.62c-13.046,-8.43 -21.075,-18.666 -25.892,-31.511c0.402,19.87 11.24,39.74 30.508,52.385c10.236,6.624 21.275,10.236 32.314,11.24c-1.003,-0.602 -2.007,-1.204 -3.01,-1.807c-11.24,-8.028 -7.226,-18.264 -21.878,-24.687" style="fill:#abb6c0;fill-rule:nonzero;"/><path d="M78.493,28.3c-3.211,2.409 -6.423,5.018 -9.232,8.029c-10.237,10.838 -14.853,25.088 -16.659,38.135c-5.821,-17.061 -0.402,-41.146 14.852,-57.203c8.029,-8.43 17.863,-14.25 28.3,-17.261c-0.803,0.803 -4.616,3.412 -5.218,4.215c-9.032,9.835 0.401,15.053 -12.043,24.085" style="fill:#8797a6;fill-rule:nonzero;"/></g><g><g><path d="M28.752,176.47c-1.275,0.85 -5.382,2.55 -10.481,2.55c-10.623,-0 -18.271,-5.807 -18.271,-15.863c0,-10.056 7.648,-15.863 18.838,-15.863c4.249,-0 8.214,0.991 10.905,1.982c-0.566,0.85 -0.849,2.55 -0.991,3.4l-0.283,0.141c-1.417,-1.416 -4.816,-3.965 -9.49,-3.965c-7.931,-0 -13.88,4.39 -13.88,14.305c-0,9.914 5.949,14.305 13.88,14.305c4.816,-0 8.215,-2.408 10.198,-3.683l0.142,0.142l-0.567,2.549Z" style="fill:#8797a6;fill-rule:nonzero;"/><path d="M36.259,159.191c-0,-3.824 -0.142,-7.648 -0.425,-11.473c2.974,0.142 5.948,0.284 8.923,0.284c2.974,-0 5.949,-0.142 8.923,-0.284c-0.142,0.425 -0.142,0.85 -0.142,1.275c0,0.425 0,0.85 0.142,1.275c-4.249,-0.283 -6.657,-0.567 -13.172,-0.567c-0,1.842 -0.142,3.4 -0.142,5.666l0,5.807c5.949,-0 9.206,-0.283 12.181,-0.425c-0.142,0.425 -0.142,0.991 -0.142,1.416c0,0.425 0,0.85 0.142,1.275c-3.399,-0.283 -9.773,-0.425 -12.181,-0.425l0,6.374c0,3.399 0,5.523 0.142,6.657c4.39,-0 10.339,-0 13.597,-0.567c-0.142,0.425 -0.142,0.991 -0.142,1.416c0,0.425 0,0.85 0.142,1.275c-2.975,-0.142 -5.949,-0.283 -9.065,-0.283c-3.116,-0 -6.09,0.141 -9.065,0.283c0.142,-3.824 0.425,-7.79 0.425,-11.472l0,-7.507l-0.141,-0Z" style="fill:#8797a6;fill-rule:nonzero;"/><path d="M89.939,153.101c-2.125,-2.125 -5.949,-4.391 -11.048,-4.391c-8.357,-0 -14.73,4.391 -14.73,14.305c-0,8.64 5.524,14.022 14.872,14.022c2.832,0 6.373,-0.425 8.073,-1.416c-0,-1.842 0.141,-3.541 0.141,-5.382c0,-2.125 -0.141,-4.25 -0.283,-6.091c0.708,0.142 1.558,0.283 2.408,0.283c0.708,0 1.558,0 2.125,-0.283c-0.142,1.275 -0.142,4.249 -0.142,9.065l-0,3.541c-2.833,0.85 -8.923,2.124 -12.747,2.124c-11.898,0 -19.404,-5.524 -19.404,-15.863c-0,-10.056 7.648,-15.863 19.545,-15.863c6.799,-0 10.481,1.416 12.748,2.549c-0.567,0.85 -0.992,2.267 -1.134,3.4l-0.424,-0Z" style="fill:#8797a6;fill-rule:nonzero;"/><path d="M100.278,159.191c-0,-3.824 -0.142,-7.648 -0.425,-11.473c2.974,0.142 5.949,0.284 8.923,0.284c2.974,-0 5.949,-0.142 8.923,-0.284c-0.142,0.425 -0.142,0.85 -0.142,1.275c0,0.425 0,0.85 0.142,1.275c-4.249,-0.283 -6.657,-0.567 -13.172,-0.567c-0,1.842 -0.142,3.4 -0.142,5.666l0,5.807c5.949,-0 9.207,-0.283 12.181,-0.425c-0.142,0.425 -0.142,0.991 -0.142,1.416c0,0.425 0,0.85 0.142,1.275c-3.399,-0.283 -9.773,-0.425 -12.181,-0.425l0,6.374c0,3.399 0,5.523 0.142,6.657c4.391,-0 10.339,-0 13.455,-0.567c-0.141,0.425 -0.141,0.991 -0.141,1.416c-0,0.425 -0,0.85 0.141,1.275c-2.974,-0.142 -5.948,-0.283 -9.064,-0.283c-3.116,-0 -6.091,0.141 -9.065,0.283c0.142,-3.824 0.425,-7.79 0.425,-11.472l-0,-7.507Z" style="fill:#8797a6;fill-rule:nonzero;"/><path d="M128.463,147.152c4.533,8.356 9.207,16.146 14.447,24.503c1.983,-3.399 9.915,-16.288 14.872,-24.503l0.708,-0c1.558,11.331 2.55,20.962 4.108,31.16c-0.85,-0.142 -1.558,-0.284 -2.408,-0.284c-0.85,0 -1.558,0.142 -2.408,0.284c-0.708,-7.932 -1.416,-15.297 -2.408,-22.945l-0.142,-0c-4.532,7.365 -9.206,14.73 -13.172,22.661l-0.425,0c-3.965,-7.365 -8.498,-15.013 -12.888,-22.661l-0.142,-0c-0.991,7.365 -2.408,17.846 -2.408,22.945c-0.566,-0.142 -1.133,-0.284 -1.699,-0.284c-0.567,0 -1.133,0.142 -1.7,0.284c1.7,-9.773 3.824,-21.812 4.816,-31.16l0.849,-0Z" style="fill:#8797a6;fill-rule:nonzero;"/><path d="M181.435,147.152c-5.099,10.481 -10.339,20.82 -15.721,31.16c0.708,-0.142 1.274,-0.284 1.841,-0.284c0.566,0 1.275,0.142 1.841,0.284c0.85,-2.833 2.691,-7.365 4.816,-11.898c1.983,0 4.107,-0.141 6.09,-0.141c2.266,-0 4.391,-0 6.515,0.141c1.841,3.966 4.249,8.782 5.099,11.898c0.85,-0.142 1.7,-0.284 2.691,-0.284c0.85,0 1.7,0.142 2.691,0.284c-2.691,-4.816 -10.198,-20.962 -15.013,-31.16l-0.85,-0Zm4.816,17.279c-1.842,0 -3.824,0.142 -5.666,0.142c-1.699,0 -3.682,-0.142 -5.382,-0.142l5.524,-11.33l5.524,11.33Z" style="fill:#8797a6;fill-rule:nonzero;"/></g><g><path d="M27.619,192.05l2.691,0l-0,1.558l-4.249,0l-0,-6.798l1.558,-0l-0,5.24Z" style="fill:#abb6c0;fill-rule:nonzero;"/><path d="M32.718,186.81l-0,1.133l-0.283,1.133l-0.567,0l-0.283,-1.133l-0,-1.133l1.133,-0Z" style="fill:#abb6c0;fill-rule:nonzero;"/><path d="M35.834,192.475l-0.283,1.133l-1.7,0l1.841,-6.798l2.55,-0l1.841,6.798l-1.7,0l-0.283,-1.133l-2.266,0Zm1.133,-4.39l-0.708,2.974l1.558,-0l-0.85,-2.974Z" style="fill:#abb6c0;fill-rule:nonzero;"/><path d="M44.19,189.501c1.842,0.142 2.266,0.425 2.266,1.983c0,1.133 0,2.266 -2.691,2.266c-1.558,0 -2.691,0 -2.691,-2.266l1.558,-0c0,0.708 0.284,0.708 0.992,0.708c0.708,0 0.991,0 0.991,-0.567c0,-0.566 -0.141,-0.566 -0.85,-0.566l-0.425,-0c-1.558,-0.142 -2.407,-0.142 -2.407,-2.125c-0,-1.983 0.991,-2.124 2.691,-2.124c1.416,-0 2.549,-0 2.549,1.841l0,0.283l-1.416,0c-0,-0.708 -0.283,-0.708 -0.992,-0.708c-0.849,0 -0.991,0.142 -0.991,0.567c-0,0.566 0.283,0.566 0.708,0.566l0.708,0.142Z" style="fill:#abb6c0;fill-rule:nonzero;"/><path d="M50.989,189.501c1.841,0.142 2.266,0.425 2.266,1.983c-0,1.133 -0,2.266 -2.691,2.266c-1.558,0 -2.691,0 -2.691,-2.266l1.558,-0c-0,0.708 0.283,0.708 0.991,0.708c0.708,0 0.992,0 0.992,-0.567c-0,-0.566 -0.142,-0.566 -0.85,-0.566l-0.425,-0c-1.558,-0.142 -2.408,-0.142 -2.408,-2.125c0,-1.983 0.992,-2.124 2.691,-2.124c1.417,-0 2.55,-0 2.55,1.841l-0,0.283l-1.558,0c-0,-0.708 -0.284,-0.708 -0.992,-0.708c-0.85,0 -0.991,0.142 -0.991,0.567c-0,0.566 0.283,0.566 0.708,0.566l0.85,0.142Z" style="fill:#abb6c0;fill-rule:nonzero;"/><path d="M60.337,186.81l-0,4.532c-0,1.841 -0.708,2.266 -2.55,2.266c-2.549,0 -2.691,-0.708 -2.691,-2.266l0,-4.532l1.7,-0l-0,4.532c-0,0.708 0.425,0.708 1.133,0.708c0.708,0 0.991,0 0.991,-0.849l0,-4.391l1.417,-0Z" style="fill:#abb6c0;fill-rule:nonzero;"/><path d="M62.178,186.81l3.258,-0c1.416,-0 2.124,0.425 2.124,1.983c0,1.133 0,1.841 -1.133,2.124c0.708,0 1.133,0.425 1.133,1.133l0,1.417l-1.699,-0l-0,-0.992c-0,-0.566 -0.142,-0.85 -0.709,-0.85l-1.274,0l-0,1.842l-1.7,-0l-0,-6.657Zm2.833,3.399c0.708,0 0.708,-0.283 0.708,-0.991c-0,-0.567 -0.142,-0.709 -0.708,-0.709l-1.275,0l-0,1.7l1.275,0Z" style="fill:#abb6c0;fill-rule:nonzero;"/><path d="M70.534,192.475l-0.283,1.133l-1.699,0l1.841,-6.798l2.549,-0l1.842,6.798l-1.7,0l-0.283,-1.133l-2.267,0Zm1.134,-4.39l-0.709,2.974l1.558,-0l-0.849,-2.974Z" style="fill:#abb6c0;fill-rule:nonzero;"/><path d="M77.758,193.608l-1.7,0l0,-6.798l2.833,-0l1.841,5.24l-0.141,-5.24l1.699,-0l0,6.798l-2.832,0l-1.7,-5.24l-0.142,-0l0.142,5.24Z" style="fill:#abb6c0;fill-rule:nonzero;"/><path d="M89.372,191.059l-0,0.142c-0,0.708 -0,1.416 -0.567,1.982c-0.566,0.567 -1.274,0.425 -1.982,0.425c-1.7,0 -2.975,-0.141 -2.975,-2.549l0,-1.7c0,-2.266 1.133,-2.549 2.975,-2.549c1.699,-0 2.549,0.141 2.549,2.266l-0,0.283l-1.7,0l0,-0.283c0,-0.567 -0.425,-0.708 -0.991,-0.708c-0.992,-0 -0.992,0.283 -0.992,1.275l0,0.991c0,0.991 0,1.416 0.992,1.416c0.708,0 0.991,0 0.991,-0.849l0,-0.142l1.7,-0Z" style="fill:#abb6c0;fill-rule:nonzero;"/><path d="M92.771,189.501l2.55,-0l-0,1.275l-2.55,-0l0,1.274l2.833,0l-0,1.558l-4.532,0l-0,-6.798l4.532,-0l-0,1.416l-2.833,0l0,1.275Z" style="fill:#abb6c0;fill-rule:nonzero;"/><path d="M101.269,186.81l3.116,-0c1.7,-0 2.55,0.708 2.55,2.691l-0,1.416c-0,1.842 -0.567,2.691 -2.266,2.691l-3.4,0l0,-6.798Zm1.7,5.24l1.416,0c0.567,0 0.85,-0.425 0.85,-1.133l0,-1.416c0,-0.85 -0.283,-0.992 -0.85,-0.992l-1.416,0l0,3.541Z" style="fill:#abb6c0;fill-rule:nonzero;"/><path d="M114.017,186.81l-0,4.532c-0,1.841 -0.709,2.266 -2.55,2.266c-2.549,0 -2.691,-0.708 -2.691,-2.266l0,-4.532l1.7,-0l-0,4.532c-0,0.708 0.425,0.708 1.133,0.708c0.708,0 0.991,0 0.991,-0.849l0,-4.391l1.417,-0Z" style="fill:#abb6c0;fill-rule:nonzero;"/><path d="M121.382,193.608l-1.7,0l-0,-6.798l2.691,-0l1.133,4.249l0.142,-0l1.133,-4.249l2.691,-0l-0,6.798l-1.7,0l0.142,-5.24l-1.7,5.24l-1.416,0l-1.558,-5.24l0.142,5.24Z" style="fill:#abb6c0;fill-rule:nonzero;"/><path d="M131.013,189.501l2.549,-0l0,1.275l-2.549,-0l-0,1.274l2.833,0l-0,1.558l-4.533,0l0,-6.798l4.391,-0l-0,1.416l-2.691,0l-0,1.275Z" style="fill:#abb6c0;fill-rule:nonzero;"/><rect x="135.687" y="186.81" width="1.7" height="6.799" style="fill:#abb6c0;"/><path d="M140.927,192.05l2.55,0l-0,1.558l-4.249,0l-0,-6.798l1.699,-0l0,5.24Z" style="fill:#abb6c0;fill-rule:nonzero;"/><path d="M146.593,192.05l2.549,0l0,1.558l-4.249,0l0,-6.798l1.7,-0l-0,5.24Z" style="fill:#abb6c0;fill-rule:nonzero;"/><path d="M152.4,189.501l2.549,-0l0,1.275l-2.549,-0l-0,1.274l2.832,0l0,1.558l-4.532,0l0,-6.798l4.532,-0l0,1.416l-2.832,0l-0,1.275Z" style="fill:#abb6c0;fill-rule:nonzero;"/><path d="M162.456,186.81l-0,4.532c-0,1.841 -0.85,2.266 -2.55,2.266c-2.549,0 -2.691,-0.708 -2.691,-2.266l0,-4.532l1.7,-0l0,4.532c0,0.708 0.425,0.708 1.133,0.708c0.708,0 0.992,0 0.992,-0.849l-0,-4.391l1.416,-0Z" style="fill:#abb6c0;fill-rule:nonzero;"/><path d="M164.297,186.81l3.258,-0c1.416,-0 2.124,0.425 2.124,1.983c0,1.133 0,1.841 -1.133,2.124c0.708,0 1.133,0.425 1.133,1.133l0,1.417l-1.699,-0l-0,-0.992c-0,-0.566 -0.142,-0.85 -0.708,-0.85l-1.275,0l-0,1.842l-1.7,-0l0,-6.657Zm2.975,3.399c0.708,0 0.708,-0.283 0.708,-0.991c-0,-0.567 -0.142,-0.709 -0.708,-0.709l-1.275,0l-0,1.7l1.275,0Z" style="fill:#abb6c0;fill-rule:nonzero;"/></g></g></g></g></g></svg>