<?xml version="1.0" encoding="UTF-8" standalone="no"?><!DOCTYPE svg PUBLIC "-//W3C//DTD SVG 1.1//EN" "http://www.w3.org/Graphics/SVG/1.1/DTD/svg11.dtd"><svg width="100%" height="100%" viewBox="0 0 194 194" version="1.1" xmlns="http://www.w3.org/2000/svg" xmlns:xlink="http://www.w3.org/1999/xlink" xml:space="preserve" xmlns:serif="http://www.serif.com/" style="fill-rule:evenodd;clip-rule:evenodd;stroke-linejoin:round;stroke-miterlimit:2;"><g id="assurances"><g id="logo-nb" serif:id="logo nb"><g><g id="layer101"><path d="M0,193.75l0,-193.75l193.75,-0l0,193.75l-193.75,0Z" style="fill:#7e8f9e;fill-rule:nonzero;"/></g><g id="layer102"><path d="M42.986,126.088c-7.372,-1.61 -13.008,-6.693 -15.298,-13.788c-0.428,-1.359 -0.881,-3.196 -1.007,-4.102c-0.251,-1.761 -0.201,-7.624 0.101,-9.058c1.484,-7.599 5.838,-13.513 11.902,-16.129c3.497,-1.535 8.756,-2.139 12.832,-1.485c5.31,0.83 10.091,4.051 12.38,8.354c1.007,1.887 1.762,4.076 1.762,5.133c-0,1.459 -0.655,1.661 -4.58,1.535c-1.837,-0.05 -3.548,-0.201 -3.799,-0.302c-0.252,-0.101 -0.78,-0.906 -1.158,-1.761c-1.434,-3.146 -4.076,-4.907 -7.649,-5.108c-2.365,-0.151 -4.353,0.251 -6.064,1.182c-4.253,2.265 -6.769,8.002 -6.341,14.418c0.503,7.272 3.472,11.827 8.58,13.16c2.768,0.705 6.039,0.352 8.656,-0.956c2.969,-1.485 5.36,-6.19 3.85,-7.549c-0.403,-0.352 -1.082,-0.427 -4.102,-0.427c-1.987,-0 -3.749,-0.101 -3.9,-0.202c-0.604,-0.402 -0.855,-1.359 -0.855,-3.321c-0,-1.963 0.251,-2.919 0.855,-3.322c0.151,-0.1 3.976,-0.201 8.505,-0.201l8.253,0l0.353,0.579c0.276,0.453 0.352,2.516 0.377,11.172c0.025,12.631 0.302,11.65 -3.07,11.65c-2.516,0 -2.944,-0.226 -3.447,-2.038c-0.528,-1.837 -0.981,-2.063 -2.189,-1.032c-1.787,1.535 -3.951,2.818 -5.586,3.347c-2.365,0.78 -6.492,0.881 -9.361,0.251Z" style="fill:#b0bac4;fill-rule:nonzero;"/><path d="M142.604,126.315c-3.724,-0.453 -8.052,-2.466 -10.87,-5.058c-8.555,-7.825 -9.285,-24.005 -1.51,-33.113c2.29,-2.668 6.039,-5.033 9.788,-6.14c2.416,-0.73 8.052,-0.931 10.619,-0.403c6.24,1.334 10.795,5.083 13.084,10.795c0.881,2.164 1.007,3.347 0.453,3.976c-0.402,0.453 -0.78,0.503 -4.001,0.503c-4.101,-0 -4.252,-0.05 -5.309,-2.063c-1.031,-1.938 -1.761,-2.818 -3.221,-3.8c-4.051,-2.743 -9.662,-2.113 -13.159,1.485c-5.159,5.259 -5.209,17.437 -0.126,22.822c2.969,3.12 8.026,4.076 11.952,2.239c2.441,-1.157 3.9,-2.944 5.108,-6.265c0.327,-0.906 0.755,-1.787 0.931,-1.988c0.277,-0.277 1.233,-0.352 4.152,-0.352c4.982,-0 5.108,0.126 4.051,4.026c-1.435,5.234 -4.605,9.209 -9.059,11.398c-1.308,0.655 -3.07,1.359 -3.9,1.586c-1.761,0.478 -6.542,0.654 -8.983,0.352Z" style="fill:#b0bac4;fill-rule:nonzero;"/><path d="M73.76,125.157l-0.554,-0.377l0,-20.834c0,-19.853 0.026,-20.86 0.453,-21.237c0.403,-0.378 1.208,-0.428 6.19,-0.428c3.422,-0 5.913,0.1 6.19,0.251c0.805,0.428 0.378,-0.729 8.178,22.143c1.937,5.687 1.887,5.586 2.214,5.461c0.151,-0.051 0.529,-0.806 0.831,-1.711c0.302,-0.881 2.038,-5.914 3.824,-11.173c1.787,-5.258 3.624,-10.568 4.051,-11.826c0.428,-1.233 1.032,-2.466 1.309,-2.692c0.478,-0.403 1.182,-0.453 6.391,-0.453l5.888,-0l0.503,0.654c0.529,0.679 0.529,0.805 0.529,20.985c-0,20.181 -0,20.306 -0.529,20.986c-0.503,0.654 -0.528,0.654 -3.975,0.654c-3.12,0 -3.498,-0.05 -4.001,-0.503l-0.554,-0.529l0,-13.084c0,-11.65 -0.05,-13.084 -0.402,-13.235c-0.202,-0.076 -0.504,-0.026 -0.629,0.1c-0.252,0.252 -1.485,3.699 -4.63,12.909c-3.8,11.071 -4.655,13.411 -5.058,13.864c-0.377,0.428 -0.805,0.478 -3.497,0.478c-3.649,0 -3.875,-0.101 -4.63,-2.39c-0.277,-0.831 -1.435,-4.177 -2.542,-7.423c-1.132,-3.246 -2.516,-7.322 -3.095,-9.059c-0.553,-1.736 -1.182,-3.522 -1.384,-4.001c-0.201,-0.452 -0.603,-1.585 -0.905,-2.491c-0.604,-1.761 -1.233,-2.465 -1.661,-1.811c-0.151,0.226 -0.252,5.51 -0.252,13.285c0,12.556 -0.025,12.909 -0.503,13.387c-0.453,0.453 -0.83,0.503 -3.85,0.503c-2.617,0 -3.447,-0.075 -3.9,-0.403Z" style="fill:#b0bac4;fill-rule:nonzero;"/><path d="M167.465,91.541c-0.302,-0.403 -0.403,-1.183 -0.403,-2.869c-0,-1.258 -0.076,-3.497 -0.176,-4.957l-0.151,-2.692l-2.642,-0c-2.919,-0 -3.699,-0.252 -5.561,-1.711c-3.171,-2.542 -3.145,-7.75 0.025,-10.468c1.384,-1.208 2.894,-1.661 5.385,-1.661c1.157,0 2.139,-0.1 2.214,-0.201c0.05,-0.101 0.05,-1.51 -0.025,-3.145l-0.151,-2.944l-3.649,-0l-0.176,0.981c-0.201,1.183 -1.736,3.422 -3.019,4.404c-1.762,1.358 -3.825,1.182 -5.586,-0.428c-3.297,-3.045 -3.447,-6.593 -0.327,-8.178c1.056,-0.528 1.409,-0.553 6.844,-0.553l5.737,-0l-0,-1.359c-0,-1.384 -0.201,-1.661 -1.258,-1.661c-0.906,0 -4.429,-1.359 -6.115,-2.365c-2.944,-1.736 -5.913,-5.46 -6.592,-8.253l-0.176,-0.705l6.064,-0l1.082,1.459c0.578,0.78 1.585,1.963 2.239,2.592c1.158,1.183 3.573,2.743 4.227,2.743c0.277,-0 0.302,-0.73 0.151,-4.227l-0.176,-4.203l-0.755,-0.603c-1.031,-0.806 -2.214,-3.372 -2.214,-4.731l0,-1.082l12.657,0l-0.151,1.384c-0.176,1.686 -1.032,3.498 -2.089,4.378l-0.805,0.654l-0.176,4.228c-0.126,3.422 -0.101,4.202 0.176,4.202c1.258,-0 5.184,-3.347 6.643,-5.662l0.705,-1.132l3.094,-0c2.466,-0 3.095,0.075 3.095,0.352c0,0.176 -0.478,1.284 -1.031,2.416c-2.315,4.605 -6.19,7.322 -12.355,8.656c-0.654,0.151 -0.704,0.251 -0.704,1.535l-0,1.384l2.214,-0c1.988,-0 2.415,0.075 3.799,0.78c2.416,1.207 3.775,3.422 3.8,6.164c-0,2.668 -1.787,5.435 -4.177,6.442c-0.403,0.151 -1.963,0.352 -3.498,0.428l-2.768,0.151l-0.075,3.095l-0.076,3.069l4.807,0c4.755,0 4.806,0 5.409,0.629c0.755,0.755 0.806,1.611 0.101,2.492l-0.503,0.654l-5.158,-0c-4.806,-0 -5.159,0.025 -5.033,0.453c0.05,0.226 0.05,2.617 -0.05,5.284c-0.202,5.234 -0.227,5.334 -1.611,5.334c-0.427,0 -0.83,-0.226 -1.056,-0.553Zm-0.906,-16.658c-0,-1.283 -0.076,-2.717 -0.151,-3.145l-0.151,-0.78l-1.686,0.025c-2.189,-0 -3.271,0.403 -3.976,1.459c-0.729,1.082 -0.729,2.24 0,3.322c0.805,1.208 1.51,1.484 3.9,1.484l2.064,0l-0,-2.365Zm9.033,-8.152c0.881,-0.479 1.786,-1.812 1.786,-2.643c0,-0.855 -0.805,-2.163 -1.635,-2.692c-0.629,-0.377 -1.258,-0.503 -2.743,-0.503l-1.912,-0l-0,1.082c-0,0.579 -0.076,1.988 -0.176,3.145l-0.151,2.063l1.988,0c1.459,0 2.239,-0.125 2.843,-0.452Zm-17.412,-5.461c-0.126,-0.327 -2.995,-0.327 -3.121,0c-0.05,0.151 0.277,0.705 0.73,1.233l0.805,0.982l0.831,-0.982c0.453,-0.528 0.78,-1.082 0.755,-1.233Z" style="fill:#b0bac4;fill-rule:nonzero;"/></g><g id="layer103"><path d="M143.535,126.315c-5.963,-0.654 -11.021,-3.523 -14.342,-8.178c-2.919,-4.101 -4.202,-8.656 -4.127,-14.846c0.126,-10.618 6.014,-18.771 15.45,-21.287c2.793,-0.755 8.001,-0.805 10.694,-0.126c6.492,1.636 10.845,5.637 12.832,11.801c0.504,1.586 0.529,1.737 0.151,2.315c-0.402,0.629 -0.452,0.629 -4.126,0.629c-2.516,-0.025 -3.825,-0.125 -4.102,-0.327c-0.226,-0.176 -0.604,-0.755 -0.855,-1.308c-1.384,-3.02 -3.624,-4.831 -6.844,-5.536c-1.661,-0.377 -2.24,-0.402 -3.8,-0.151c-4.605,0.705 -7.725,3.724 -9.385,9.084c-0.78,2.491 -0.831,7.951 -0.126,10.694c1.132,4.252 3.321,7.246 6.316,8.555c2.667,1.183 6.592,1.233 9.083,0.126c2.24,-0.982 4.806,-4.328 5.486,-7.172c0.377,-1.56 0.629,-1.635 4.554,-1.635c4.403,-0 4.554,0.075 4.328,2.139c-0.378,3.724 -2.567,7.876 -5.611,10.669c-3.775,3.447 -9.738,5.208 -15.576,4.554Z" style="fill:#fafbfc;fill-rule:nonzero;"/><path d="M43.389,126.063c-12.078,-2.415 -18.922,-14.04 -16.33,-27.804c0.478,-2.567 2.038,-6.165 3.749,-8.555c5.158,-7.272 14.846,-10.241 23.753,-7.272c5.309,1.761 9.587,6.341 10.87,11.6c0.277,1.182 0.277,1.358 -0.151,1.837c-0.427,0.452 -0.755,0.503 -4.076,0.503c-4.076,-0 -4.152,-0.025 -5.058,-2.089c-2.667,-6.039 -11.625,-6.945 -16.481,-1.686c-2.617,2.793 -3.699,6.039 -3.699,11.022c0,5.133 1.208,8.907 3.749,11.675c3.02,3.296 7.926,4.227 12.707,2.466c2.693,-1.007 4.957,-3.8 5.335,-6.542c0.251,-1.837 -0.051,-1.963 -4.63,-2.064c-4.731,-0.1 -4.58,0.025 -4.58,-3.523c0,-3.749 -0.679,-3.472 9.008,-3.472c7.448,0 8.052,0.025 8.43,0.453c0.377,0.428 0.428,1.56 0.428,11.273c-0,8.077 -0.076,10.895 -0.302,11.121c-0.202,0.202 -1.158,0.302 -2.617,0.302c-2.642,0 -2.718,-0.05 -3.372,-2.088c-0.579,-1.761 -1.057,-1.812 -2.994,-0.226c-1.787,1.434 -3.699,2.415 -5.712,2.943c-1.56,0.403 -6.24,0.479 -8.027,0.126Z" style="fill:#fafbfc;fill-rule:nonzero;"/><path d="M73.634,124.856c-0.402,-0.428 -0.428,-2.139 -0.428,-20.986c0,-19.853 0.026,-20.507 0.478,-20.935c0.428,-0.403 1.133,-0.428 6.341,-0.428c5.259,0 5.914,0.051 6.316,0.453c0.227,0.252 1.082,2.315 1.862,4.605c0.78,2.29 2.089,6.089 2.894,8.429c0.805,2.366 2.214,6.492 3.12,9.185c0.906,2.692 1.736,4.982 1.837,5.082c0.1,0.101 0.327,0.101 0.478,0c0.176,-0.125 1.585,-3.875 3.12,-8.354c6.366,-18.519 6.416,-18.72 6.97,-19.073c0.478,-0.302 4.806,-0.427 11.55,-0.302c1.409,0.026 1.333,-0.981 1.333,21.388c0,18.394 -0.05,20.634 -0.402,20.986c-0.328,0.327 -1.057,0.402 -4.001,0.402c-3.322,0 -3.649,-0.05 -3.9,-0.478c-0.151,-0.302 -0.252,-5.108 -0.252,-13.336c-0.025,-11.147 -0.076,-12.908 -0.403,-13.235c-0.528,-0.503 -0.78,-0.478 -1.132,0.151c-0.302,0.579 -2.239,6.039 -3.674,10.291c-0.478,1.46 -1.258,3.724 -1.711,5.033c-0.478,1.308 -1.484,4.252 -2.264,6.542c-0.78,2.29 -1.611,4.353 -1.812,4.605c-0.352,0.352 -0.881,0.427 -3.623,0.427c-3.07,0 -3.246,-0.025 -3.599,-0.578c-0.352,-0.504 -1.761,-4.479 -6.19,-17.413c-3.245,-9.486 -3.296,-9.612 -4.101,-9.285c-0.403,0.151 -0.428,1.208 -0.428,13.035c0,9.863 -0.075,13.008 -0.327,13.487c-0.302,0.629 -0.352,0.629 -3.976,0.704c-3.296,0.05 -3.698,0.025 -4.076,-0.402Z" style="fill:#fafbfc;fill-rule:nonzero;"/><path d="M161.023,80.645c-2.365,-0.729 -4.454,-3.271 -4.705,-5.737c-0.302,-2.843 1.207,-5.561 3.799,-6.894c1.283,-0.68 1.283,-0.68 8.077,-0.755c4.026,-0.05 7.071,-0.201 7.473,-0.378c1.51,-0.578 2.19,-2.969 1.284,-4.504c-0.629,-1.056 -1.736,-1.484 -3.951,-1.484l-1.912,-0l-0,-1.309c-0,-2.566 -0,-2.541 2.541,-2.415c1.737,0.1 2.542,0.277 3.599,0.805c3.396,1.661 4.73,5.636 3.069,9.033c-0.729,1.51 -1.61,2.391 -3.271,3.271c-0.981,0.529 -1.434,0.554 -8.077,0.68c-7.448,0.126 -7.75,0.176 -8.53,1.384c-0.931,1.409 -0.604,3.296 0.73,4.353c0.604,0.478 1.031,0.553 2.944,0.553c2.164,0 2.239,0.026 2.466,0.655c0.151,0.352 0.251,1.207 0.251,1.887l0,1.233l-2.315,-0.025c-1.283,-0 -2.843,-0.177 -3.472,-0.353Z" style="fill:#fafbfc;fill-rule:nonzero;"/><path d="M170.383,79.211l0.076,-1.837l4.806,0c4.403,0 4.881,0.051 5.359,0.478c0.78,0.705 0.705,1.988 -0.125,2.642c-0.629,0.504 -1.007,0.529 -5.435,0.529l-4.756,-0l0.075,-1.812Z" style="fill:#fafbfc;fill-rule:nonzero;"/><path d="M155.563,67.007c-0.78,-0.151 -2.995,-2.189 -3.699,-3.447c-1.233,-2.114 -1.057,-3.799 0.478,-5.158c1.208,-1.057 2.717,-1.283 8.404,-1.283l4.982,-0l0.176,0.956c0.076,0.503 0.151,1.358 0.151,1.887l0,0.931l-2.013,-0c-1.987,-0 -2.013,-0 -2.013,0.629c0,1.535 -2.163,4.403 -3.9,5.183c-0.981,0.453 -1.459,0.504 -2.566,0.302Zm2.038,-4.453c1.057,-1.41 0.906,-1.661 -0.956,-1.661c-0.906,-0 -1.711,0.126 -1.787,0.251c-0.201,0.328 1.309,2.265 1.762,2.265c0.176,0 0.603,-0.377 0.981,-0.855Z" style="fill:#fafbfc;fill-rule:nonzero;"/></g></g></g></g></svg>