<?xml version="1.0" encoding="UTF-8" standalone="no"?><!DOCTYPE svg PUBLIC "-//W3C//DTD SVG 1.1//EN" "http://www.w3.org/Graphics/SVG/1.1/DTD/svg11.dtd"><svg width="100%" height="100%" viewBox="0 0 194 194" version="1.1" xmlns="http://www.w3.org/2000/svg" xmlns:xlink="http://www.w3.org/1999/xlink" xml:space="preserve" xmlns:serif="http://www.serif.com/" style="fill-rule:evenodd;clip-rule:evenodd;stroke-linejoin:round;stroke-miterlimit:2;"><g id="assurances"><g id="logo-nb" serif:id="logo nb"><g><rect x="0" y="-0" width="193.75" height="193.75" style="fill:#7e8f9e;"/><path d="M33.921,159.334l-14.316,-0l-0,-17.782l-6.289,-0l-0,38.977l6.289,0l-0,-15.717l14.316,-0l-0,15.717l6.289,0l0,-38.977l-6.289,-0l-0,17.782Z" style="fill:#fff;fill-rule:nonzero;"/><path d="M59.13,153.266c-6.236,0 -12.252,5.267 -12.252,13.99c0,8.722 5.752,13.937 13.126,13.937c3.252,-0.056 6.418,-1.055 9.113,-2.876l-2.107,-3.908c-1.819,1.247 -3.968,1.925 -6.173,1.949c-4.288,-0 -7.322,-2.708 -7.859,-7.533l16.887,0c0.198,-0.963 0.29,-1.945 0.274,-2.928c-0,-7.427 -3.803,-12.631 -11.009,-12.631Zm-6.236,11.588c0.537,-4.446 3.255,-6.774 6.394,-6.774c3.634,0 5.425,2.55 5.425,6.774l-11.819,-0Z" style="fill:#fff;fill-rule:nonzero;"/><path d="M90.628,153.266c-3.634,0 -6.321,1.896 -8.733,4.214l-0.221,-0l-0.432,-3.582l-5.141,0l0,26.621l6.226,-0l-0,-18.552c2.223,-2.17 3.74,-3.307 6.068,-3.307c2.928,-0 4.214,1.622 4.214,6.015l-0,15.886l6.152,-0l-0,-16.729c-0,-6.721 -2.444,-10.566 -8.133,-10.566Z" style="fill:#fff;fill-rule:nonzero;"/><path d="M120.988,153.266c-3.634,0 -6.32,1.896 -8.733,4.214l-0.221,-0l-0.432,-3.582l-5.151,0l-0,26.621l6.236,-0l0,-18.552c2.223,-2.17 3.74,-3.307 6.068,-3.307c2.929,-0 4.214,1.622 4.214,6.015l-0,15.886l6.236,-0l0,-16.729c-0.031,-6.721 -2.528,-10.566 -8.217,-10.566Z" style="fill:#fff;fill-rule:nonzero;"/><path d="M147.335,153.266c-6.236,0 -12.251,5.267 -12.251,13.99c-0,8.722 5.751,13.937 13.125,13.937c3.252,-0.056 6.418,-1.055 9.113,-2.876l-2.107,-3.908c-1.822,1.249 -3.975,1.927 -6.184,1.949c-4.287,-0 -7.321,-2.708 -7.859,-7.533l16.898,0c0.198,-0.963 0.29,-1.945 0.274,-2.928c-0,-7.427 -3.751,-12.631 -11.009,-12.631Zm-6.236,11.588c0.537,-4.446 3.255,-6.774 6.394,-6.774c3.635,0 5.425,2.55 5.425,6.774l-11.819,-0Z" style="fill:#fff;fill-rule:nonzero;"/><path d="M170.1,158.628l-0.221,0l-0.432,-4.719l-5.151,-0l-0,26.62l6.236,0l0,-16.265c1.622,-4.014 4.214,-5.478 6.321,-5.478c0.941,-0.007 1.876,0.139 2.77,0.432l1.054,-5.425c-0.957,-0.41 -1.995,-0.594 -3.034,-0.538c-2.823,0.011 -5.647,1.907 -7.543,5.373Z" style="fill:#fff;fill-rule:nonzero;"/><path d="M170.3,147.335l1.465,0l-0,-4.54l1.769,-0l0,-1.338l-4.982,-0l-0,1.338l1.748,-0l0,4.54Z" style="fill:#fff;fill-rule:nonzero;"/><path d="M175.81,145.144l-0.169,-2.065l0.074,0l1.169,3.371l1.033,0l1.169,-3.371l0.074,0l-0.169,2.065l0,2.191l1.433,0l-0,-5.878l-1.749,-0l-0.769,1.907l-0.453,1.369l-0.074,0l-0.453,-1.369l-0.79,-1.907l-1.759,-0l0,5.878l1.433,0l-0,-2.191Z" style="fill:#fff;fill-rule:nonzero;"/></g><g><g id="layer101"></g><g id="layer102"></g><g id="layer103"></g></g></g></g></svg>