<?xml version="1.0" encoding="UTF-8" standalone="no"?><!DOCTYPE svg PUBLIC "-//W3C//DTD SVG 1.1//EN" "http://www.w3.org/Graphics/SVG/1.1/DTD/svg11.dtd"><svg width="100%" height="100%" viewBox="0 0 200 194" version="1.1" xmlns="http://www.w3.org/2000/svg" xmlns:xlink="http://www.w3.org/1999/xlink" xml:space="preserve" xmlns:serif="http://www.serif.com/" style="fill-rule:evenodd;clip-rule:evenodd;stroke-linejoin:round;stroke-miterlimit:2;"><g id="assurances"><g id="logo-nb" serif:id="logo nb"><g><g id="layer101"></g><g id="layer102"></g><g id="layer103"></g></g><g><path d="M132.252,109.04c0,0 11.226,12.897 33.874,12.897c22.91,0 33.874,-12.897 33.874,-12.897c-0,0 -6.087,26.618 -33.874,26.618c-26.882,0 -33.874,-26.618 -33.874,-26.618" style="fill:#b7c0c9;fill-rule:nonzero;"/><path d="M69.54,73.713l-0,30.637l-12.308,-0l-0,-28.85c-0,-5.357 -3.102,-8.741 -8.178,-8.741c-4.98,-0 -8.174,3.384 -8.174,8.741l-0,28.85l-12.311,-0l-0,-28.85c-0,-5.357 -3.103,-8.741 -8.083,-8.741c-5.076,-0 -8.27,3.384 -8.27,8.741l0,28.85l-12.216,-0l-0,-46.424l12.216,0l0,7.423c2.536,-5.263 7.33,-8.362 13.627,-8.362c6.391,0 11.277,3.381 13.531,8.927c2.54,-5.457 7.802,-8.927 14.474,-8.927c9.399,0 15.692,6.765 15.692,16.726Z" style="fill:#748798;fill-rule:nonzero;"/><rect x="80.159" y="73.653" width="12.308" height="30.697" style="fill:#748798;fill-rule:nonzero;"/><rect x="80.159" y="57.926" width="12.308" height="10.628" style="fill:#748798;fill-rule:nonzero;"/><path d="M151.905,70.861l-35.066,13.281c3.571,5.171 9.815,7.339 15.798,5.073c5.096,-1.93 8.27,-6.549 8.353,-11.102l11.515,-4.363c1.126,10.427 -5.713,20.767 -16.438,24.815c-13.621,5.17 -27.026,-0.515 -31.987,-13.61c-4.96,-13.095 1.287,-26.313 14.911,-31.472c13.531,-5.127 26.882,0.669 31.963,13.816c0.456,1.146 0.775,2.341 0.951,3.562Zm-37.921,4.412l23.806,-9.017c-3.556,-4.081 -9.565,-5.624 -15.189,-3.493c-5.44,2.066 -8.603,6.98 -8.617,12.51Z" style="fill:#748798;fill-rule:nonzero;"/><rect x="159.75" y="39.13" width="12.222" height="65.22" style="fill:#748798;fill-rule:nonzero;"/><path d="M22.896,123.991l-0,10.366l-2.468,0l0,-10.073c0,-2.534 -1.436,-4.093 -3.834,-4.093c-2.399,-0 -3.901,1.559 -3.901,4.093l-0,10.073l-2.47,0l-0,-10.073c-0,-2.534 -1.436,-4.093 -3.866,-4.093c-2.373,-0 -3.867,1.559 -3.867,4.093l0,10.073l-2.49,0l-0,-15.921l2.502,-0l-0,2.372c0.91,-1.692 2.631,-2.634 4.808,-2.634c2.373,0 4.128,1.204 4.906,3.217c0.862,-2.01 2.732,-3.217 5.199,-3.217c3.315,0 5.481,2.244 5.481,5.817Z" style="fill:#748798;fill-rule:nonzero;"/><path d="M41.942,127.794c0,4.127 -2.829,6.856 -7.051,6.856c-4.223,0 -7.052,-2.729 -7.052,-6.856l-0,-9.358l2.502,-0l-0,9.358c-0,2.892 1.786,4.777 4.55,4.777c2.763,-0 4.547,-1.885 4.547,-4.777l-0,-9.358l2.504,-0l0,9.358Z" style="fill:#748798;fill-rule:nonzero;"/><path d="M54.575,120.547l-3.639,-0l-0,13.81l-2.476,0l-0,-13.81l-2.95,-0l-0,-2.111l2.95,-0l-0,-4.062l2.47,0l-0,4.062l3.639,-0l0.006,2.111Z" style="fill:#748798;fill-rule:nonzero;"/><path d="M72.151,127.794c-0,4.127 -2.826,6.856 -7.052,6.856c-4.225,0 -7.051,-2.729 -7.051,-6.856l-0,-9.358l2.501,-0l0,9.358c0,2.892 1.787,4.777 4.55,4.777c2.764,-0 4.55,-1.885 4.55,-4.777l0,-9.358l2.502,-0l-0,9.358Z" style="fill:#748798;fill-rule:nonzero;"/><path d="M93.007,127.176l-14.298,0c0.244,3.1 2.903,5.499 6.011,5.426c2.55,0.034 4.834,-1.626 5.59,-4.061l2.533,-0c-0.861,3.541 -4.225,6.109 -8.154,6.109c-4.883,0 -8.416,-3.478 -8.416,-8.255c-0,-4.777 3.541,-8.221 8.416,-8.221c4.874,0 8.381,3.447 8.381,8.221c-0.005,0.261 -0.026,0.522 -0.063,0.781Zm-14.232,-1.924l11.926,-0c-0.425,-2.959 -2.873,-5.038 -5.981,-5.038c-3.107,-0 -5.46,2.056 -5.945,5.038Z" style="fill:#748798;fill-rule:nonzero;"/><rect x="97.322" y="111.935" width="2.502" height="22.422" style="fill:#748798;fill-rule:nonzero;"/><rect x="105.088" y="111.935" width="2.502" height="22.422" style="fill:#748798;fill-rule:nonzero;"/><path d="M128.613,127.176l-14.299,0c0.245,3.1 2.904,5.499 6.012,5.426c2.55,0.033 4.833,-1.627 5.59,-4.061l2.533,-0c-0.876,3.541 -4.225,6.109 -8.157,6.109c-4.883,0 -8.416,-3.478 -8.416,-8.255c-0,-4.777 3.544,-8.221 8.416,-8.221c4.871,0 8.384,3.447 8.384,8.221c-0.005,0.261 -0.026,0.522 -0.063,0.781Zm-14.232,-1.924l11.92,-0c-0.422,-2.959 -2.858,-5.038 -5.978,-5.038c-3.119,-0 -5.457,2.056 -5.942,5.038Z" style="fill:#748798;fill-rule:nonzero;"/><path d="M11.846,147.194c-0,3.427 -2.413,5.905 -5.909,5.905c-3.447,0 -5.937,-2.478 -5.937,-5.905c-0,-3.427 2.502,-5.857 5.949,-5.857c2.912,0 5.21,1.83 5.744,4.444l-1.436,-0c-0.5,-1.951 -2.148,-3.263 -4.328,-3.263c-2.646,-0 -4.556,1.964 -4.556,4.676c-0,2.711 1.919,4.708 4.576,4.708c2.398,-0 4.245,-1.646 4.443,-3.944l-4.443,-0l-0,-1.132l5.891,0c0.011,0.122 0.013,0.245 0.006,0.368Z" style="fill:#b7c0c9;fill-rule:nonzero;"/><path d="M18.033,144.614l-0,1.247c-1.994,0 -3.16,1.083 -3.16,2.961l0,4.128l-1.281,0l0,-8.152l1.281,0l0,1.979c0.45,-1.342 1.745,-2.229 3.16,-2.163Z" style="fill:#b7c0c9;fill-rule:nonzero;"/><path d="M27.184,148.874c0,2.445 -1.795,4.225 -4.291,4.225c-2.496,0 -4.309,-1.78 -4.309,-4.225c0,-2.444 1.813,-4.211 4.309,-4.211c2.496,0 4.291,1.764 4.291,4.211Zm-7.304,0c-0,1.813 1.263,3.111 3.013,3.111c1.749,-0 2.993,-1.298 2.993,-3.111c-0,-1.812 -1.267,-3.093 -2.99,-3.093c-1.724,-0 -3.016,1.301 -3.016,3.093Z" style="fill:#b7c0c9;fill-rule:nonzero;"/><path d="M36.019,149.589c0,2.114 -1.436,3.51 -3.61,3.51c-2.174,0 -3.614,-1.396 -3.614,-3.51l0,-4.791l1.282,0l-0,4.791c-0,1.482 0.913,2.445 2.329,2.445c1.416,-0 2.33,-0.963 2.33,-2.445l-0,-4.791l1.281,0l0.002,4.791Z" style="fill:#b7c0c9;fill-rule:nonzero;"/><path d="M46.719,148.874c0,2.445 -1.723,4.225 -4.044,4.225c-1.289,0.027 -2.511,-0.584 -3.263,-1.631l-0,4.805l-1.293,0l0,-11.489l1.281,-0l0,1.496c0.748,-1.051 1.973,-1.664 3.263,-1.631c2.35,0.014 4.056,1.778 4.056,4.225Zm-1.316,0c0,-1.798 -1.249,-3.093 -2.995,-3.093c-1.747,-0 -2.996,1.301 -2.996,3.093c-0,1.792 1.249,3.111 2.996,3.111c1.746,-0 2.995,-1.298 2.995,-3.111Z" style="fill:#b7c0c9;fill-rule:nonzero;"/><path d="M56.465,149.273l-7.322,0c0.127,1.588 1.49,2.816 3.082,2.778c1.309,0.021 2.484,-0.829 2.873,-2.08l1.298,0c-0.507,1.885 -2.251,3.189 -4.202,3.143c-2.493,-0 -4.309,-1.781 -4.309,-4.226c0,-2.444 1.816,-4.21 4.309,-4.21c2.493,-0 4.308,1.763 4.308,4.21c-0.003,0.13 -0.015,0.258 -0.037,0.385Zm-7.287,-0.982l6.106,0c-0.25,-1.484 -1.548,-2.582 -3.053,-2.582c-1.505,0 -2.803,1.098 -3.053,2.582Z" style="fill:#b7c0c9;fill-rule:nonzero;"/><path d="M74.768,147.524l-0,5.426l-2.18,0l-0,-5.11c-0,-0.948 -0.549,-1.545 -1.437,-1.545c-0.887,-0 -1.436,0.597 -1.436,1.545l0,5.11l-2.18,0l0,-5.11c0,-0.948 -0.549,-1.545 -1.436,-1.545c-0.888,-0 -1.468,0.597 -1.468,1.545l0,5.11l-2.16,0l0,-8.221l2.16,0l0,1.316c0.432,-0.934 1.388,-1.52 2.416,-1.482c1.051,-0.037 2.016,0.601 2.395,1.582c0.459,-0.991 1.47,-1.616 2.562,-1.582c1.649,-0 2.764,1.197 2.764,2.961Z" style="fill:#b7c0c9;fill-rule:nonzero;"/><path d="M84.999,144.729l0,8.221l-2.18,0l-0,-1.33c-0.656,0.948 -1.743,1.509 -2.895,1.494c-2.163,-0 -3.734,-1.781 -3.734,-4.26c-0,-2.479 1.579,-4.277 3.734,-4.277c1.148,-0.011 2.232,0.544 2.895,1.482l-0,-1.315l2.18,-0.015Zm-2.18,4.111c-0,-1.396 -0.913,-2.396 -2.197,-2.396c-1.284,0 -2.212,1 -2.212,2.396c-0,1.396 0.933,2.378 2.212,2.378c1.278,-0 2.197,-0.997 2.197,-2.378Z" style="fill:#b7c0c9;fill-rule:nonzero;"/><rect x="86.964" y="141.403" width="2.16" height="11.547" style="fill:#b7c0c9;fill-rule:nonzero;"/><path d="M99.456,144.729l-0,8.221l-2.166,0l-0,-1.33c-0.658,0.953 -1.752,1.514 -2.91,1.494c-2.16,-0 -3.734,-1.781 -3.734,-4.26c0,-2.479 1.583,-4.277 3.734,-4.277c1.152,-0.019 2.241,0.53 2.91,1.468l-0,-1.316l2.166,0Zm-2.166,4.111c-0,-1.396 -0.913,-2.396 -2.195,-2.396c-1.281,0 -2.214,1 -2.214,2.396c-0,1.396 0.933,2.378 2.214,2.378c1.282,-0 2.195,-0.997 2.195,-2.378Z" style="fill:#b7c0c9;fill-rule:nonzero;"/><path d="M105.746,148.641l3.461,4.309l-2.562,0l-3.062,-3.944l0,3.944l-2.163,0l0,-11.547l2.163,0l0,6.894l3.062,-3.579l2.562,-0l-3.461,3.923Z" style="fill:#b7c0c9;fill-rule:nonzero;"/><path d="M118.442,148.84c0,2.479 -1.864,4.259 -4.429,4.259c-2.565,0 -4.441,-1.78 -4.441,-4.259c0,-2.479 1.864,-4.277 4.441,-4.277c2.576,-0 4.429,1.798 4.429,4.277Zm-6.641,-0c0,1.381 0.916,2.378 2.197,2.378c1.282,-0 2.212,-0.997 2.212,-2.378c0,-1.382 -0.913,-2.396 -2.212,-2.396c-1.298,0 -2.197,1 -2.197,2.396Z" style="fill:#b7c0c9;fill-rule:nonzero;"/><path d="M127.407,143.922l-0,0.813l1.597,0l-0,1.798l-1.597,0l-0,6.423l-2.18,-0l-0,-6.429l-2.586,0l0,6.423l-2.171,0l-0,-6.423l-1.149,0l-0,-1.798l1.149,0l-0,-0.807c-0,-1.565 1.278,-2.68 3.076,-2.68c0.23,-0.001 0.459,0.021 0.684,0.066l-0,1.882c-0.216,-0.071 -0.44,-0.111 -0.667,-0.118c-0.023,-0.002 -0.047,-0.003 -0.071,-0.003c-0.473,-0 -0.862,0.389 -0.862,0.862c-0,0.001 -0,0.002 -0,0.003l-0,0.813l2.585,-0l0,-0.825c0,-1.565 1.281,-2.68 3.079,-2.68c0.235,-0.001 0.468,0.022 0.698,0.066l0,1.882c-0.215,-0.07 -0.44,-0.11 -0.666,-0.118c-0.019,-0.001 -0.038,-0.002 -0.058,-0.002c-0.469,0 -0.856,0.383 -0.861,0.852Z" style="fill:#b7c0c9;fill-rule:nonzero;"/><path d="M142.846,147.808l-0,5.142l-2.183,0l-0,-4.826c-0,-1.097 -0.681,-1.829 -1.698,-1.829c-1.017,-0 -1.746,0.732 -1.746,1.829l-0,4.826l-2.163,0l-0,-11.547l2.16,0l-0,4.596c0.528,-0.909 1.511,-1.46 2.562,-1.436c1.821,-0 3.068,1.332 3.068,3.245Z" style="fill:#b7c0c9;fill-rule:nonzero;"/><path d="M152.33,149.541c0,2.093 -1.58,3.558 -3.86,3.558c-2.281,0 -3.895,-1.465 -3.895,-3.558l-0,-4.812l2.166,0l-0,4.812c-0,1.065 0.68,1.778 1.723,1.778c1.043,-0 1.723,-0.713 1.723,-1.778l0,-4.812l2.163,0l-0.02,4.812Z" style="fill:#b7c0c9;fill-rule:nonzero;"/><path d="M166.514,147.524l-0,5.426l-2.18,0l-0,-5.11c-0,-0.948 -0.549,-1.545 -1.436,-1.545c-0.888,-0 -1.437,0.597 -1.437,1.545l0,5.11l-2.18,0l0,-5.11c0,-0.948 -0.548,-1.545 -1.436,-1.545c-0.887,-0 -1.465,0.597 -1.465,1.545l0,5.11l-2.163,0l0,-8.221l2.163,0l0,1.316c0.431,-0.934 1.385,-1.52 2.413,-1.482c1.052,-0.037 2.017,0.601 2.396,1.582c0.459,-0.991 1.47,-1.616 2.562,-1.582c1.654,-0 2.763,1.197 2.763,2.961Z" style="fill:#b7c0c9;fill-rule:nonzero;"/><path d="M176.754,144.729l-0,8.221l-2.18,0l-0,-1.33c-0.655,0.946 -1.739,1.506 -2.89,1.494c-2.163,-0 -3.734,-1.781 -3.734,-4.26c0,-2.479 1.58,-4.277 3.734,-4.277c1.149,-0.01 2.232,0.544 2.896,1.482l-0,-1.315l2.174,-0.015Zm-2.18,4.111c-0,-1.396 -0.916,-2.396 -2.198,-2.396c-1.281,0 -2.211,1 -2.211,2.396c-0,1.396 0.93,2.378 2.211,2.378c1.282,-0 2.198,-0.997 2.198,-2.378Z" style="fill:#b7c0c9;fill-rule:nonzero;"/><path d="M186.52,147.808l-0,5.142l-2.163,0l0,-4.826c0,-1.097 -0.684,-1.829 -1.723,-1.829c-1.04,-0 -1.724,0.732 -1.724,1.829l0,4.826l-2.18,0l0,-8.221l2.18,0l0,1.233c0.552,-0.892 1.538,-1.425 2.585,-1.399c1.793,-0 3.025,1.332 3.025,3.245Z" style="fill:#b7c0c9;fill-rule:nonzero;"/><path d="M189.513,143.649c-0.764,0 -1.316,-0.5 -1.316,-1.197c0,-0.001 0,-0.001 0,-0.002c0,-0.668 0.55,-1.217 1.218,-1.217c0.033,-0 0.066,0.001 0.098,0.003c0.781,0 1.33,0.5 1.33,1.216c-0,0.715 -0.549,1.197 -1.33,1.197Zm1.097,1.08l0,8.221l-2.177,0l-0,-8.221l2.177,0Z" style="fill:#b7c0c9;fill-rule:nonzero;"/><path d="M199.196,147.177l-1.979,-0c-0.049,-0.65 -0.601,-1.101 -1.399,-1.101c-0.73,0 -1.247,0.368 -1.247,0.902c0,0.647 0.813,0.862 1.979,1.112c1.166,0.25 2.896,0.75 2.896,2.447c-0,1.514 -1.465,2.562 -3.545,2.562c-2.128,0 -3.625,-1.097 -3.625,-2.662l2.1,-0c0.052,0.666 0.649,1.117 1.514,1.117c0.798,0 1.364,-0.402 1.364,-0.948c0,-0.718 -0.997,-0.885 -2.18,-1.149c-1.184,-0.264 -2.628,-0.862 -2.628,-2.378c-0,-1.517 1.364,-2.513 3.36,-2.513c1.997,-0 3.39,1.08 3.39,2.611Z" style="fill:#b7c0c9;fill-rule:nonzero;"/></g></g></g></svg>