<?xml version="1.0" encoding="UTF-8" standalone="no"?><!DOCTYPE svg PUBLIC "-//W3C//DTD SVG 1.1//EN" "http://www.w3.org/Graphics/SVG/1.1/DTD/svg11.dtd"><svg width="100%" height="100%" viewBox="0 0 200 194" version="1.1" xmlns="http://www.w3.org/2000/svg" xmlns:xlink="http://www.w3.org/1999/xlink" xml:space="preserve" xmlns:serif="http://www.serif.com/" style="fill-rule:evenodd;clip-rule:evenodd;stroke-linejoin:round;stroke-miterlimit:2;"><g id="assurances"><g id="logo-nb" serif:id="logo nb"><g><g id="layer101"></g><g id="layer102"></g><g id="layer103"></g></g><g><path d="M0.879,93.375l0,-28.423l0.613,-0l18.949,21.76l0,-21.76l2.798,-0l0,28.423l-0.679,-0l-18.749,-21.507l0,21.507l-2.932,-0Z" style="fill:#7e8f9e;fill-rule:nonzero;"/><path d="M51.809,86.432l2.279,1.2c-0.649,1.33 -1.529,2.535 -2.599,3.557c-0.96,0.893 -2.082,1.594 -3.305,2.066c-1.33,0.488 -2.74,0.728 -4.157,0.706c-3.036,0.142 -5.978,-1.098 -7.995,-3.371c-1.88,-2.097 -2.915,-4.819 -2.905,-7.636c-0.027,-2.593 0.845,-5.117 2.465,-7.142c1.965,-2.605 5.08,-4.098 8.342,-3.998c3.353,-0.11 6.559,1.411 8.594,4.078c1.569,2.065 2.387,4.604 2.319,7.196l-18.962,-0c-0.031,2.231 0.811,4.389 2.345,6.009c1.45,1.537 3.485,2.39 5.597,2.346c1.069,0.001 2.129,-0.189 3.131,-0.56c0.928,-0.345 1.786,-0.855 2.532,-1.506c0.915,-0.861 1.696,-1.853 2.319,-2.945Zm-0,-5.663c-0.272,-1.254 -0.808,-2.435 -1.572,-3.465c-0.74,-0.901 -1.68,-1.618 -2.745,-2.092c-1.13,-0.531 -2.364,-0.804 -3.612,-0.799c-1.966,-0.038 -3.873,0.678 -5.33,1.999c-1.217,1.19 -2.072,2.701 -2.465,4.357l15.724,0Zm-6.53,-18.269l4.158,0l-5.703,5.956l-2.665,0l4.21,-5.956Z" style="fill:#7e8f9e;fill-rule:nonzero;"/><path d="M74.156,71.828c3.049,-0.055 5.975,1.232 7.995,3.518c1.955,2.043 3.044,4.767 3.038,7.595c0.023,2.903 -1.109,5.699 -3.145,7.769c-2.089,2.111 -4.939,3.3 -7.908,3.3c-2.97,-0 -5.82,-1.189 -7.909,-3.3c-1.994,-2.07 -3.095,-4.842 -3.065,-7.716c-0.041,-2.805 0.999,-5.522 2.905,-7.582c2.029,-2.335 4.996,-3.65 8.089,-3.584Zm-0,2.665c-2.2,-0.024 -4.311,0.881 -5.81,2.492c-1.592,1.6 -2.467,3.78 -2.426,6.036c-0.007,1.489 0.374,2.954 1.106,4.251c0.694,1.273 1.728,2.329 2.985,3.051c2.57,1.432 5.706,1.432 8.275,0c1.258,-0.722 2.291,-1.778 2.985,-3.051c0.732,-1.297 1.113,-2.762 1.106,-4.251c0.042,-2.259 -0.839,-4.44 -2.438,-6.036c-1.491,-1.617 -3.597,-2.532 -5.797,-2.519l0.014,0.027Z" style="fill:#7e8f9e;fill-rule:nonzero;"/><rect x="94.09" y="64.232" width="2.665" height="29.143" style="fill:#7e8f9e;fill-rule:nonzero;"/><path d="M107.722,63.699c0.596,-0.012 1.171,0.225 1.586,0.653c0.425,0.417 0.662,0.99 0.653,1.586c0.008,0.591 -0.228,1.161 -0.653,1.572c-0.415,0.429 -0.99,0.666 -1.586,0.653c-0.587,0.008 -1.153,-0.228 -1.559,-0.653c-0.425,-0.411 -0.662,-0.981 -0.653,-1.572c-0.009,-0.596 0.227,-1.169 0.653,-1.586c0.407,-0.423 0.972,-0.659 1.559,-0.653Zm-1.333,8.662l2.666,-0l-0,21.014l-2.666,-0l0,-21.014Z" style="fill:#7e8f9e;fill-rule:nonzero;"/><path d="M140.049,72.361l0,21.014l-2.665,-0l0,-3.585c-1.036,1.302 -2.341,2.365 -3.824,3.118c-4.127,1.981 -9.09,1.091 -12.273,-2.198c-2.078,-2.092 -3.219,-4.941 -3.158,-7.889c-0.049,-2.919 1.103,-5.735 3.185,-7.782c1.997,-2.095 4.781,-3.264 7.675,-3.225c1.631,-0.022 3.242,0.358 4.691,1.106c1.473,0.797 2.737,1.929 3.691,3.305l-0,-3.864l2.678,-0Zm-10.886,2.079c-2.984,0.009 -5.735,1.653 -7.156,4.277c-1.512,2.629 -1.512,5.873 -0,8.502c0.719,1.309 1.778,2.4 3.065,3.158c1.248,0.746 2.676,1.137 4.13,1.132c1.478,0.002 2.93,-0.384 4.211,-1.119c1.286,-0.706 2.348,-1.759 3.065,-3.038c0.723,-1.318 1.09,-2.802 1.066,-4.304c0.063,-2.275 -0.804,-4.48 -2.398,-6.103c-1.55,-1.642 -3.726,-2.553 -5.983,-2.505Z" style="fill:#7e8f9e;fill-rule:nonzero;"/><path d="M150.483,72.361l2.665,-0l0,3.771c0.952,-1.326 2.179,-2.431 3.598,-3.238c1.348,-0.731 2.864,-1.099 4.397,-1.066c1.483,-0.025 2.94,0.392 4.184,1.199c1.19,0.785 2.118,1.909 2.666,3.225c0.684,2.036 0.978,4.184 0.866,6.329l-0,10.794l-2.665,-0l-0,-10.008c0.057,-1.622 -0.046,-3.247 -0.307,-4.85c-0.217,-1.228 -0.859,-2.341 -1.812,-3.145c-1.005,-0.738 -2.233,-1.11 -3.478,-1.052c-1.614,-0.009 -3.177,0.569 -4.397,1.625c-1.257,1.026 -2.154,2.427 -2.559,3.998c-0.325,1.892 -0.454,3.812 -0.386,5.73l-0,7.702l-2.665,-0l-0,-21.014l-0.107,-0Z" style="fill:#7e8f9e;fill-rule:nonzero;"/><path d="M196.735,86.432l2.279,1.2c-0.648,1.33 -1.528,2.535 -2.599,3.557c-0.956,0.891 -2.073,1.592 -3.291,2.066c-1.331,0.488 -2.74,0.728 -4.157,0.706c-3.036,0.142 -5.978,-1.098 -7.996,-3.371c-1.878,-2.098 -2.913,-4.82 -2.905,-7.636c-0.026,-2.593 0.845,-5.117 2.466,-7.142c1.965,-2.605 5.08,-4.098 8.341,-3.998c3.353,-0.11 6.56,1.411 8.595,4.078c1.568,2.065 2.386,4.604 2.319,7.196l-19.002,-0c-0.031,2.231 0.811,4.389 2.345,6.009c1.45,1.537 3.485,2.39 5.597,2.346c1.069,0.001 2.129,-0.189 3.131,-0.56c0.952,-0.338 1.832,-0.848 2.599,-1.506c0.9,-0.864 1.668,-1.856 2.278,-2.945Zm0,-5.663c-0.274,-1.255 -0.815,-2.436 -1.585,-3.465c-0.739,-0.902 -1.68,-1.618 -2.745,-2.092c-1.122,-0.527 -2.346,-0.8 -3.585,-0.799c-1.966,-0.038 -3.874,0.678 -5.33,1.999c-1.217,1.19 -2.072,2.701 -2.465,4.357l15.71,0Z" style="fill:#7e8f9e;fill-rule:nonzero;"/><rect x="0.6" y="103.342" width="199.4" height="0.546" style="fill:#7e8f9e;"/><path d="M6.396,116.268c-0.385,-0.837 -1.238,-1.364 -2.159,-1.333c-0.031,-0.001 -0.062,-0.002 -0.093,-0.002c-1.075,-0 -1.965,0.873 -1.985,1.948c-0,1.079 1.106,1.572 1.959,1.959l0.826,0.359c1.625,0.68 2.958,1.493 2.958,3.492c-0,0 -0,0.001 -0,0.002c-0,2.12 -1.745,3.864 -3.864,3.864c-0.045,0 -0.089,-0.001 -0.134,-0.002c-1.918,0.045 -3.594,-1.345 -3.904,-3.238l1.333,-0.387c0.127,1.29 1.209,2.292 2.505,2.319c0.071,0.006 0.143,0.009 0.214,0.009c1.35,0 2.472,-1.085 2.517,-2.434c0,-1.466 -1.146,-1.959 -2.305,-2.492l-0.773,-0.307c-1.466,-0.666 -2.665,-1.412 -2.665,-3.198c0.046,-1.765 1.511,-3.192 3.277,-3.192c0.076,-0 0.152,0.002 0.228,0.008c1.326,-0.002 2.55,0.733 3.171,1.905l-1.106,0.72Z" style="fill:#7e8f9e;fill-rule:nonzero;"/><path d="M13.232,122.784l-1.506,3.558l-1.572,-0l5.743,-13.112l5.623,13.112l-1.505,-0l-1.453,-3.558l-5.33,-0Zm2.665,-6.303l-2.132,5.01l4.224,0l-2.092,-5.01Z" style="fill:#7e8f9e;fill-rule:nonzero;"/><path d="M24.332,113.296l9.754,10.221l0,-9.688l1.333,0l-0,13.072l-9.701,-10.207l-0,9.648l-1.333,-0l0,-13.046l-0.053,0Z" style="fill:#7e8f9e;fill-rule:nonzero;"/><path d="M42.721,126.342l-1.332,-0l-0,-11.22l-3.079,-0l0,-1.333l7.463,0l-0,1.333l-3.052,-0l0,11.22Z" style="fill:#7e8f9e;fill-rule:nonzero;"/><path d="M48.531,113.829l6.489,0l0,1.333l-5.09,-0l0,3.718l4.944,-0l-0,1.332l-4.944,0l0,4.917l5.09,0l0,1.333l-6.489,-0l-0,-12.633Zm5.53,-3.504l-2.545,2.558l-0.826,-0.466l1.972,-2.665l1.399,0.573Z" style="fill:#7e8f9e;fill-rule:nonzero;"/><path d="M72.197,124.583c-1.047,1.123 -2.47,1.825 -3.998,1.972c-1.94,0.059 -3.586,-1.485 -3.651,-3.425c-0,-2.092 1.506,-3.091 3.065,-4.117l0.146,-0.094c-0.684,-0.735 -1.118,-1.668 -1.239,-2.665c0,0 0,-0 0,-0c0,-1.462 1.203,-2.665 2.665,-2.665c0.022,-0 0.045,-0 0.067,0c1.384,-0.044 2.561,1.055 2.612,2.439c-0,1.492 -1.133,2.305 -2.212,3.118l2.665,3.371l1.412,-1.639l1.013,0.826l-1.546,1.893l2.119,2.745l-1.786,-0l-1.332,-1.759Zm-4.211,-4.238c-1.092,0.487 -1.873,1.488 -2.079,2.665c-0.023,1.241 0.96,2.288 2.199,2.346c1.255,-0.191 2.405,-0.813 3.251,-1.759l-2.785,-3.585l-0.586,0.333Zm1.039,-2.252c0.809,-0.4 1.373,-1.172 1.506,-2.065c0,-0.731 -0.602,-1.333 -1.333,-1.333c-0.731,0 -1.332,0.602 -1.332,1.333c0.078,0.6 0.344,1.16 0.759,1.599l0.294,0.413l0.106,0.053Z" style="fill:#7e8f9e;fill-rule:nonzero;"/><path d="M85.842,126.342l-1.333,-0l0,-12.513l2.012,0c1.079,-0.098 2.162,0.134 3.105,0.666c0.905,0.669 1.428,1.74 1.399,2.865c0.006,1.02 -0.432,1.993 -1.199,2.665c-0.862,0.617 -1.915,0.91 -2.971,0.827l-1.013,-0l-0,5.49Zm-0,-6.77l0.933,0c1.545,0 2.851,-0.466 2.851,-2.252c0,-2.038 -1.639,-2.185 -3.264,-2.185l-0.52,0l-0,4.451l-0,-0.014Z" style="fill:#7e8f9e;fill-rule:nonzero;"/><path d="M95.516,126.342l-1.333,-0l0,-12.513l1.813,0c2.372,0 4.584,0.626 4.584,3.451c0.003,0.063 0.005,0.126 0.005,0.19c0,1.742 -1.395,3.194 -3.137,3.262l3.998,5.61l-1.799,-0l-3.798,-5.49l-0.333,-0l0,5.49Zm0,-6.663l0.426,0c1.573,0 3.172,-0.293 3.172,-2.239c-0,-1.945 -1.506,-2.252 -3.185,-2.252l-0.413,0l0,4.491Z" style="fill:#7e8f9e;fill-rule:nonzero;"/><path d="M104.444,113.829l6.489,0l0,1.333l-5.103,-0l-0,3.718l4.944,-0l-0,1.332l-4.944,0l-0,4.917l5.09,0l0,1.333l-6.476,-0l0,-12.633Zm5.53,-3.504l-2.545,2.558l-0.826,-0.466l1.972,-2.665l1.399,0.573Z" style="fill:#7e8f9e;fill-rule:nonzero;"/><path d="M118.502,123.37l3.571,-9.541l1.506,0l-5.077,13.259l-5.077,-13.325l1.506,-0l3.571,9.607Z" style="fill:#7e8f9e;fill-rule:nonzero;"/><path d="M138.717,120.092l-0,0.027c-0,3.574 -2.942,6.516 -6.516,6.516c-3.575,-0 -6.516,-2.942 -6.516,-6.516c-0,-3.575 2.941,-6.516 6.516,-6.516c0.009,-0 0.017,-0 0.026,-0c3.56,-0 6.49,2.929 6.49,6.489Zm-11.647,0c0.029,2.794 2.336,5.077 5.13,5.077c2.815,0 5.131,-2.316 5.131,-5.13c-0,-2.814 -2.316,-5.13 -5.13,-5.13c-2.801,0.021 -5.102,2.315 -5.131,5.116l0,0.067Z" style="fill:#7e8f9e;fill-rule:nonzero;"/><path d="M140.809,113.829l1.612,0l3.185,5.57l3.185,-5.57l1.612,0l-4.104,7.129l-0,5.33l-1.333,0l0,-5.33l-4.157,-7.129Z" style="fill:#7e8f9e;fill-rule:nonzero;"/><path d="M153.654,122.784l-1.505,3.558l-1.533,-0l5.77,-13.112l5.623,13.112l-1.545,-0l-1.479,-3.558l-5.331,-0Zm2.666,-6.303l-2.106,5.01l4.264,0l-2.158,-5.01Z" style="fill:#7e8f9e;fill-rule:nonzero;"/><path d="M164.781,113.296l9.754,10.221l0,-9.688l1.333,0l-0,13.072l-9.754,-10.207l-0,9.648l-1.333,-0l0,-13.046Z" style="fill:#7e8f9e;fill-rule:nonzero;"/><path d="M189.406,116.561c-0.992,-1.048 -2.368,-1.65 -3.811,-1.666c-2.741,0.139 -4.921,2.433 -4.921,5.177c0,2.745 2.18,5.038 4.921,5.177c1.43,-0.039 2.79,-0.638 3.785,-1.666l-0,1.773c-1.086,0.786 -2.391,1.215 -3.731,1.226c-0.098,0.004 -0.196,0.006 -0.294,0.006c-3.553,0 -6.476,-2.923 -6.476,-6.476c-0,-3.553 2.923,-6.476 6.476,-6.476c0.098,-0 0.196,0.002 0.294,0.007c1.345,-0.019 2.659,0.413 3.731,1.226l-0,1.692l0.026,-0Z" style="fill:#7e8f9e;fill-rule:nonzero;"/><path d="M193.124,113.829l6.49,0l-0,1.333l-5.157,-0l-0,3.718l4.943,-0l0,1.332l-4.943,0l-0,4.917l5.09,0l-0,1.333l-6.423,-0l0,-12.633Z" style="fill:#7e8f9e;fill-rule:nonzero;"/></g></g></g></svg>