<svg width="330" height="549" viewBox="0 0 330 549" fill="none" xmlns="http://www.w3.org/2000/svg">
<path d="M59.75 43.75C62.9145 43.75 66.0079 42.8116 68.6391 41.0535C71.2703 39.2954 73.3211 36.7967 74.5321 33.8731C75.7431 30.9495 76.0599 27.7324 75.4426 24.6287C74.8252 21.525 73.3013 18.6739 71.0637 16.4363C68.8261 14.1987 65.9751 12.6748 62.8714 12.0574C59.7677 11.44 56.5507 11.757 53.6271 12.968C50.7035 14.179 48.2046 16.2297 46.4465 18.8609C44.6884 21.4921 43.75 24.5855 43.75 27.75C43.75 31.9935 45.4357 36.0632 48.4363 39.0638C51.4369 42.0643 55.5065 43.75 59.75 43.75Z" stroke="black" stroke-linecap="round" stroke-linejoin="round"/>
<path d="M70.417 15.7409L73.75 12.4081" stroke="black" stroke-linecap="round" stroke-linejoin="round"/>
<path d="M73.083 11.75L74.416 13.083" stroke="black" stroke-linecap="round" stroke-linejoin="round"/>
<path d="M59.75 11.75V3.75" stroke="black" stroke-linecap="round" stroke-linejoin="round"/>
<path d="M63.75 3.75H55.75" stroke="black" stroke-linecap="round" stroke-linejoin="round"/>
<path d="M59.75 29.085L53.083 21.7061" stroke="black" stroke-linecap="round" stroke-linejoin="round"/>
<path d="M50.868 60.164C51.0158 58.5916 51.5571 57.0817 52.4419 55.7736C53.3267 54.4654 54.5266 53.401 55.931 52.6786C57.3354 51.9561 58.8991 51.5988 60.4779 51.6396C62.0567 51.6804 63.5998 52.118 64.9649 52.9121C66.3301 53.7062 67.4734 54.8311 68.2895 56.1833C69.1055 57.5354 69.568 59.0713 69.6344 60.6492C69.7008 62.2271 69.3688 63.7964 68.6692 65.2122C67.9695 66.6281 66.9247 67.8451 65.631 68.751" stroke="black" stroke-linecap="round" stroke-linejoin="round"/>
<path d="M52.153 56.383C54.3715 58.636 57.2154 60.1708 60.3163 60.7888C63.4172 61.4068 66.6323 61.0794 69.545 59.849" stroke="black" stroke-linecap="round" stroke-linejoin="round"/>
<path d="M58.227 67.759C57.7008 67.7641 57.188 67.9248 56.753 68.2209C56.318 68.5169 55.9803 68.9351 55.7825 69.4227C55.5847 69.9102 55.5356 70.4454 55.6414 70.9609C55.7472 71.4763 56.0031 71.9489 56.377 72.3191C56.7508 72.6894 57.2259 72.9407 57.7423 73.0415C58.2588 73.1423 58.7935 73.088 59.2791 72.8855C59.7647 72.6829 60.1796 72.3412 60.4714 71.9034C60.7632 71.4656 60.9189 70.9512 60.919 70.425C60.9153 69.7145 60.6296 69.0347 60.1248 68.5348C59.62 68.0348 58.9374 67.7558 58.227 67.759Z" stroke="black" stroke-linecap="round" stroke-linejoin="round"/>
<path d="M55.535 70.426H52.843C52.1393 70.4294 51.4417 70.2942 50.7902 70.028C50.1387 69.7619 49.546 69.37 49.046 68.8748C48.5459 68.3796 48.1484 67.7907 47.8759 67.1418C47.6034 66.493 47.4614 65.7968 47.458 65.093V63.177" stroke="black" stroke-linecap="round" stroke-linejoin="round"/>
<path d="M77.75 91.756C77.7431 88.5763 76.8599 85.46 75.1976 82.7494C73.5353 80.0388 71.158 77.8388 68.327 76.391" stroke="black" stroke-linecap="round" stroke-linejoin="round"/>
<path d="M52.169 76.391C49.3387 77.8393 46.9623 80.0396 45.3007 82.7501C43.6391 85.4607 42.7566 88.5767 42.75 91.756" stroke="black" stroke-linecap="round" stroke-linejoin="round"/>
<path d="M74.2 120.491L76.721 124.938H81.721C81.9923 124.933 82.2591 125.008 82.4876 125.154C82.7161 125.301 82.8962 125.511 83.005 125.76C83.1109 126.007 83.1388 126.281 83.0852 126.544C83.0316 126.808 82.899 127.049 82.705 127.235L78.114 132.144L80.657 137.871C80.7676 138.134 80.7918 138.424 80.7262 138.702C80.6606 138.979 80.5085 139.228 80.292 139.413C80.0723 139.601 79.8002 139.716 79.5126 139.744C79.225 139.772 78.9357 139.711 78.684 139.569L72.535 136.178L66.392 139.567C66.1403 139.71 65.8508 139.772 65.5627 139.744C65.2747 139.716 65.0021 139.601 64.782 139.413C64.5646 139.228 64.4119 138.979 64.3462 138.701C64.2806 138.423 64.3054 138.132 64.417 137.869L66.876 132.34" stroke="black" stroke-linecap="round" stroke-linejoin="round"/>
<path d="M46.692 120.491L44.171 124.938H39.171C38.8998 124.933 38.6332 125.009 38.4048 125.155C38.1763 125.301 37.9962 125.512 37.887 125.76C37.7816 126.007 37.7539 126.281 37.8074 126.544C37.861 126.808 37.9934 127.049 38.187 127.235L42.778 132.144L40.235 137.871C40.1242 138.134 40.1001 138.425 40.1661 138.702C40.2321 138.979 40.3848 139.228 40.602 139.413C40.8213 139.601 41.0931 139.716 41.3804 139.744C41.6677 139.772 41.9567 139.711 42.208 139.569L48.357 136.178L54.504 139.567C54.7557 139.71 55.0453 139.772 55.3333 139.744C55.6214 139.716 55.8939 139.601 56.114 139.413C56.3316 139.228 56.4844 138.979 56.55 138.701C56.6157 138.423 56.5908 138.132 56.479 137.869L54.02 132.34" stroke="black" stroke-linecap="round" stroke-linejoin="round"/>
<path d="M61.186 100.279L65.196 108.133L72.907 108.889C73.0894 108.906 73.2634 108.974 73.4088 109.086C73.5542 109.197 73.6652 109.347 73.729 109.519C73.7914 109.69 73.8029 109.876 73.7621 110.053C73.7213 110.231 73.6299 110.392 73.499 110.519L67.147 116.743L69.501 125.201C69.5509 125.38 69.547 125.569 69.4897 125.745C69.4324 125.921 69.3243 126.077 69.179 126.192C69.0315 126.308 68.8541 126.381 68.6674 126.401C68.4806 126.421 68.292 126.388 68.123 126.306L60.314 122.481L52.507 126.306C52.3383 126.388 52.1498 126.421 51.9632 126.401C51.7766 126.38 51.5997 126.307 51.453 126.19C51.3083 126.075 51.2005 125.92 51.143 125.744C51.0854 125.568 51.0805 125.38 51.129 125.201L53.483 116.743L47.131 110.519C47.0006 110.392 46.9096 110.23 46.8688 110.053C46.828 109.876 46.8392 109.69 46.901 109.519C46.9647 109.347 47.0756 109.197 47.221 109.085C47.3664 108.973 47.5404 108.904 47.723 108.887L55.434 108.131L59.434 100.279C59.5168 100.119 59.6422 99.9838 59.7965 99.8898C59.9507 99.7958 60.1279 99.7462 60.3085 99.7462C60.4891 99.7462 60.6663 99.7958 60.8205 99.8898C60.9748 99.9838 61.1002 100.119 61.183 100.279H61.186Z" stroke="black" stroke-linecap="round" stroke-linejoin="round"/>
<rect x="46" y="163" width="28" height="24" rx="4" stroke="black"/>
<path d="M51 163V157C51 152.029 55.0294 148 60 148C64.9706 148 69 152.029 69 157V163" stroke="black"/>
<circle cx="60" cy="172" r="3" stroke="black"/>
<path d="M60 175V180" stroke="black" stroke-linecap="round"/>
<path d="M28.65 18.3683L30.5408 21.7035H34.2908C34.4942 21.6996 34.6943 21.7561 34.8657 21.8659C35.0371 21.9756 35.1721 22.1336 35.2538 22.3201C35.3331 22.5055 35.3541 22.7106 35.3139 22.9083C35.2737 23.1059 35.1742 23.2866 35.0288 23.4263L31.5855 27.108L33.4928 31.4033C33.5757 31.6002 33.5939 31.8184 33.5446 32.0262C33.4954 32.2341 33.3814 32.421 33.219 32.5598C33.0542 32.7005 32.8501 32.7872 32.6344 32.8081C32.4187 32.8291 32.2018 32.7832 32.013 32.6768L27.4013 30.1335L22.794 32.6753C22.6052 32.7824 22.3881 32.8287 22.1721 32.8081C21.956 32.7874 21.7516 32.7007 21.5865 32.5598C21.4234 32.4212 21.3089 32.234 21.2597 32.0257C21.2104 31.8174 21.229 31.5988 21.3128 31.4018L23.157 27.2551" stroke="black" stroke-linecap="round" stroke-linejoin="round"/>
<path d="M8.01902 18.3683L6.12828 21.7035H2.37828C2.17487 21.6999 1.97492 21.7565 1.80358 21.8662C1.63224 21.9759 1.49714 22.1338 1.41526 22.3201C1.33621 22.5055 1.31541 22.7106 1.35559 22.9082C1.39577 23.1058 1.49506 23.2864 1.64027 23.4263L5.08352 27.108L3.17627 31.4033C3.09318 31.6003 3.07507 31.8186 3.12457 32.0266C3.17407 32.2346 3.2886 32.4214 3.45153 32.5598C3.616 32.7006 3.81982 32.7874 4.03531 32.8083C4.25081 32.8292 4.46752 32.7833 4.65602 32.6768L9.26776 30.1335L13.878 32.6753C14.0668 32.7824 14.284 32.8287 14.5 32.8081C14.716 32.7874 14.9205 32.7007 15.0855 32.5598C15.2487 32.4212 15.3633 32.2341 15.4125 32.0257C15.4618 31.8174 15.4431 31.5988 15.3593 31.4018L13.515 27.2551" stroke="black" stroke-linecap="round" stroke-linejoin="round"/>
<path d="M18.8895 3.2093L21.897 9.09981L27.6802 9.66679C27.8171 9.67952 27.9475 9.7306 28.0566 9.81419C28.1657 9.89778 28.2489 10.0105 28.2967 10.1393C28.3436 10.2676 28.3522 10.4067 28.3216 10.5398C28.291 10.673 28.2224 10.7943 28.1243 10.8893L23.3602 15.5573L25.1257 21.9008C25.1632 22.0347 25.1602 22.1767 25.1173 22.3089C25.0743 22.4411 24.9932 22.5577 24.8842 22.644C24.7736 22.7312 24.6406 22.7855 24.5005 22.8006C24.3605 22.8158 24.219 22.7911 24.0922 22.7295L18.2355 19.8608L12.3802 22.7295C12.2538 22.7913 12.1123 22.8159 11.9724 22.8005C11.8325 22.7851 11.6998 22.7303 11.5897 22.6425C11.4812 22.5561 11.4004 22.4398 11.3572 22.308C11.314 22.1762 11.3104 22.0347 11.3468 21.9008L13.1123 15.5573L8.34824 10.8893C8.25047 10.7941 8.1822 10.6727 8.15161 10.5397C8.12102 10.4066 8.12941 10.2677 8.17576 10.1393C8.22353 10.0103 8.30671 9.8974 8.41576 9.81355C8.52482 9.72971 8.65531 9.67831 8.79225 9.66528L14.5755 9.0983L17.5755 3.2093C17.6376 3.08891 17.7317 2.98788 17.8473 2.91739C17.963 2.84689 18.0959 2.80963 18.2314 2.80963C18.3669 2.80963 18.4997 2.84689 18.6154 2.91739C18.7311 2.98788 18.8251 3.08891 18.8872 3.2093H18.8895Z" stroke="black" stroke-linecap="round" stroke-linejoin="round"/>
<rect x="8" y="50.7143" width="20" height="17.1429" rx="4" stroke="black"/>
<path d="M11.5714 50.7143V46.4286C11.5714 42.8782 14.4496 40 18 40C21.5504 40 24.4286 42.8782 24.4286 46.4286V50.7143" stroke="black"/>
<circle cx="18" cy="57.1429" r="2.14286" stroke="black"/>
<path d="M18 59.2857V62.8571" stroke="black" stroke-linecap="round"/>
</svg>
