<?xml version="1.0" encoding="UTF-8" standalone="no"?><!DOCTYPE svg PUBLIC "-//W3C//DTD SVG 1.1//EN" "http://www.w3.org/Graphics/SVG/1.1/DTD/svg11.dtd"><svg width="100%" height="100%" viewBox="0 0 200 194" version="1.1" xmlns="http://www.w3.org/2000/svg" xmlns:xlink="http://www.w3.org/1999/xlink" xml:space="preserve" xmlns:serif="http://www.serif.com/" style="fill-rule:evenodd;clip-rule:evenodd;stroke-linejoin:round;stroke-miterlimit:2;"><g id="assurances"><g id="logo-nb" serif:id="logo nb"><g><g id="layer101"></g><g id="layer102"></g><g id="layer103"></g></g><g><path d="M25.384,143.76c-1.273,-0.523 -2.659,-1.523 -2.659,-1.909c0,-0.159 0.546,-0.841 1.227,-1.5l1.227,-1.205l0.432,0.5c1.432,1.727 4.841,1.432 4.841,-0.432c-0,-0.886 -0.546,-1.295 -2.705,-2.045c-2.431,-0.863 -3.499,-1.568 -4.09,-2.795c-1.795,-3.75 1.522,-7.545 6.295,-7.158c1.681,0.136 3.977,1.159 4.09,1.84c0.091,0.409 -1.863,2.636 -2.318,2.636c-0.113,0 -0.454,-0.204 -0.727,-0.477c-0.545,-0.522 -2,-0.795 -2.909,-0.568c-0.318,0.068 -0.727,0.364 -0.931,0.659c-0.728,1.114 0.159,1.977 2.886,2.773c1.5,0.431 2.977,1.431 3.59,2.431c1.409,2.341 0.364,5.704 -2.181,7c-1.523,0.772 -4.455,0.886 -6.068,0.25Z" style="fill:#77899a;fill-rule:nonzero;"/><path d="M44.11,143.76c-0.705,-0.25 -1.568,-0.773 -2.046,-1.25l-0.818,-0.841l2.636,-2.545l0.614,0.568c0.909,0.841 1.477,1.091 2.613,1.091c0.75,-0 1.159,-0.137 1.614,-0.569c1.227,-1.136 0.659,-1.909 -2.25,-3.045c-3.568,-1.386 -4.431,-2.363 -4.431,-5.022c-0,-1.636 0.318,-2.363 1.545,-3.454c1.182,-1.068 2.295,-1.432 4.477,-1.432c1.931,0.023 3.749,0.614 4.567,1.5c0.364,0.409 0.341,0.477 -0.727,1.613c-0.613,0.659 -1.181,1.228 -1.25,1.273c-0.091,0.045 -0.545,-0.205 -1,-0.523c-1.636,-1.09 -3.954,-0.568 -3.976,0.932c-0,0.705 0.636,1.159 2.408,1.773c2.5,0.84 3.386,1.386 4.159,2.545c1.205,1.841 0.909,4.499 -0.704,6.181c-1.523,1.545 -4.841,2.091 -7.431,1.205Z" style="fill:#77899a;fill-rule:nonzero;"/><path d="M64.858,143.646c-1.568,-0.727 -2.682,-1.886 -3.25,-3.432c-0.432,-1.159 -0.477,-1.727 -0.477,-6.931l-0,-5.681l3.636,-0l-0,5.34c-0,5.818 0.136,6.545 1.227,7.272c0.886,0.591 2.204,0.682 3.181,0.228c1.5,-0.728 1.614,-1.137 1.682,-7.341l0.091,-5.522l1.727,0.068l1.75,0.069l0.068,5.226c0.068,6.454 -0.159,7.613 -1.954,9.499c-1.682,1.75 -5.25,2.296 -7.681,1.205Z" style="fill:#77899a;fill-rule:nonzero;"/><path d="M153.463,143.782c-3.545,-1.272 -5.522,-4.136 -5.522,-7.954c-0,-3.999 1.863,-6.817 5.34,-8.135c1.636,-0.636 4.863,-0.591 6.272,0.045c1.182,0.546 2.705,1.818 2.705,2.25c-0,0.341 -2.068,1.932 -2.5,1.932c-0.136,-0 -0.614,-0.273 -1.045,-0.614c-2.023,-1.545 -5.227,-0.636 -6.5,1.841c-0.727,1.363 -0.682,3.795 0.068,5.136c0.841,1.522 2,2.318 3.477,2.454c1.659,0.136 2.25,-0.045 3.318,-1l0.886,-0.818l1.387,0.977c0.75,0.523 1.363,1.023 1.363,1.091c0,0.477 -1.568,1.909 -2.659,2.432c-1.704,0.84 -4.772,1 -6.59,0.363Z" style="fill:#77899a;fill-rule:nonzero;"/><path d="M191.096,143.76c-1.227,-0.478 -2.704,-1.546 -2.704,-1.955c-0,-0.159 0.568,-0.818 1.249,-1.454l1.273,-1.205l0.886,0.818c0.773,0.682 1.068,0.819 1.955,0.819c1.613,-0 2.363,-0.523 2.363,-1.637c0,-0.841 -0.795,-1.386 -3,-2.136c-3.908,-1.295 -5.317,-4.159 -3.522,-7.136c0.591,-0.999 0.977,-1.363 2.068,-1.931c1.204,-0.614 1.591,-0.682 3.318,-0.682c1.727,0 2.113,0.068 3.318,0.682c0.772,0.409 1.363,0.863 1.409,1.113c0.091,0.409 -1.864,2.636 -2.318,2.636c-0.114,0 -0.455,-0.227 -0.773,-0.5c-0.432,-0.409 -0.795,-0.522 -1.841,-0.522c-1.568,-0 -2.068,0.341 -2.068,1.363c0,0.637 0.137,0.796 0.978,1.205c0.522,0.272 1.681,0.75 2.59,1.068c2.795,1.022 4.068,2.954 3.591,5.499c-0.523,2.864 -2.682,4.409 -6.091,4.386c-1.022,-0.022 -2.022,-0.182 -2.681,-0.431Z" style="fill:#77899a;fill-rule:nonzero;"/><path d="M0,143.555c0,-0.114 0.409,-1.114 0.886,-2.227c0.5,-1.114 1.909,-4.363 3.159,-7.249c1.25,-2.864 2.409,-5.5 2.568,-5.841c0.273,-0.613 0.364,-0.636 1.841,-0.636c0.841,-0 1.545,0.091 1.545,0.227c0,0.114 0.25,0.75 0.545,1.409c1.182,2.545 6.045,14.022 6.045,14.272c0,0.159 -0.636,0.227 -1.954,0.181l-1.954,-0.068l-0.682,-1.659l-0.705,-1.659l-6.135,0.137l-0.591,1.59l-0.614,1.591l-1.977,0.068c-1.091,0.023 -1.977,-0.022 -1.977,-0.136Zm9.885,-6.795c-0.09,-0.227 -0.477,-1.25 -0.863,-2.295c-0.455,-1.25 -0.75,-1.795 -0.864,-1.591c-0.159,0.296 -1.568,4.045 -1.568,4.204c0,0.046 0.773,0.068 1.727,0.068c1.568,0 1.705,-0.045 1.568,-0.386Z" style="fill:#77899a;fill-rule:nonzero;"/><path d="M83.174,143.737l0,-16.135l3.704,-0c4.432,-0 5.727,0.295 7,1.568c2.045,2.045 1.568,5.863 -0.909,7.249c-0.523,0.296 -0.932,0.591 -0.932,0.659c-0,0.068 0.818,1.477 1.818,3.159c1,1.659 1.818,3.136 1.818,3.273c-0,0.136 -0.773,0.227 -2.023,0.227l-2.022,-0l-1.75,-3.182c-1.613,-2.977 -1.773,-3.181 -2.409,-3.181l-0.659,-0l0,6.363l-3.636,-0Zm7.658,-10.113c0.364,-0.25 0.523,-0.568 0.523,-1.091c0,-1.341 -0.682,-1.75 -2.931,-1.75l-1.614,0l0,3.477l1.75,-0.159c0.954,-0.068 1.977,-0.295 2.272,-0.477Z" style="fill:#77899a;fill-rule:nonzero;"/><path d="M101.513,143.6c-0.068,-0.09 0,-0.477 0.159,-0.863c1.773,-4.091 4.159,-9.613 4.659,-10.704c0.341,-0.75 0.909,-2.045 1.273,-2.886l0.636,-1.545l3.045,-0l3.341,7.795c1.818,4.272 3.318,7.908 3.318,8.067c-0,0.182 -0.546,0.273 -1.909,0.273l-1.909,-0l-0.659,-1.636l-0.659,-1.659l-3.091,-0.069l-3.068,-0.068l-0.659,1.727l-0.659,1.705l-1.841,-0c-1,-0 -1.886,-0.068 -1.977,-0.137Zm9.84,-6.522c0,-0.159 -1.409,-3.908 -1.59,-4.227c-0.137,-0.25 -0.228,-0.159 -0.41,0.455c-0.136,0.409 -0.499,1.432 -0.818,2.227c-0.318,0.818 -0.59,1.5 -0.59,1.545c-0,0.046 0.772,0.068 1.704,0.068c0.932,0 1.704,-0.022 1.704,-0.068Z" style="fill:#77899a;fill-rule:nonzero;"/><path d="M125.216,143.737l-0,-16.135l4.272,-0l3.363,5.181l3.386,5.204l0.069,-5.204l0.045,-5.204l1.773,0.068l1.749,0.069l0,15.907l-4.272,0l-6.636,-10.272l-0.068,5.204l-0.045,5.182l-3.636,-0Z" style="fill:#77899a;fill-rule:nonzero;"/><path d="M169.939,135.897c-0.046,-4.318 -0.023,-7.954 -0,-8.068c0.045,-0.136 2.113,-0.227 5.522,-0.227l5.454,-0l-0.068,1.659l-0.068,1.636l-3.568,0.068l-3.591,0.068l0,2.705l3.273,-0c2.545,-0 3.318,0.068 3.522,0.318c0.159,0.204 0.25,0.863 0.205,1.659l-0.069,1.318l-3.408,0.068c-1.864,0.023 -3.455,0.136 -3.523,0.25c-0.068,0.114 -0.068,0.886 -0.045,1.704l0.091,1.5l7.681,0l-0,3.182l-11.34,-0l-0.068,-7.84Z" style="fill:#77899a;fill-rule:nonzero;"/><path d="M14.43,124.534c-2.977,-0.5 -6.317,-1.591 -8.499,-2.795c-2.045,-1.136 -5.931,-4.613 -5.931,-5.318c0,-0.386 7.772,-7.976 8.317,-8.09c0.182,-0.045 0.546,0.205 0.841,0.545c3.114,3.886 7.545,5.795 11.908,5.136c2.364,-0.363 4.795,-1.545 5.818,-2.84c1.068,-1.364 1.295,-2.023 1.295,-3.841c0,-2.25 -0.545,-3.318 -2.34,-4.568c-1.932,-1.363 -3.273,-1.931 -8.363,-3.636c-7.454,-2.499 -9.977,-3.977 -12.772,-7.454c-2.818,-3.522 -3.636,-9.658 -1.977,-14.998c0.864,-2.841 3.545,-6.227 6.454,-8.204c7.317,-4.999 19.362,-5.227 27.225,-0.545c1.727,1.022 3.818,2.749 3.818,3.181c-0,0.409 -7.727,8.545 -8.136,8.545c-0.205,-0 -0.909,-0.568 -1.568,-1.25c-2.068,-2.204 -5.022,-3.182 -8.931,-3.023c-2,0.091 -2.613,0.205 -3.75,0.728c-2.59,1.181 -3.727,2.818 -3.749,5.317c-0,0.773 0.136,1.75 0.318,2.159c0.841,2.023 4.613,3.886 13.317,6.545c1.613,0.5 5.386,2.432 6.726,3.454c1.796,1.364 3.75,3.75 4.636,5.682c0.841,1.772 1.341,4.34 1.364,6.863c0.023,9.385 -5.659,16.066 -15.521,18.202c-2.341,0.5 -7.954,0.614 -10.5,0.205Z" style="fill:#77899a;fill-rule:nonzero;"/><path d="M45.7,123.193c-0.182,-0.227 -0.227,-7.885 -0.204,-28.679l0.068,-28.384l11.135,-0.068c11.613,-0.068 13.544,0.023 17.044,0.909c4.704,1.182 8.249,3.545 10.386,7c1.613,2.567 2.227,5.113 2.227,9.09c-0,4.636 -0.887,7.703 -3,10.544c-3.636,4.841 -9.59,6.727 -21.248,6.727l-5.068,-0l0,11.317c0,8.499 -0.068,11.385 -0.273,11.59c-0.409,0.409 -10.703,0.386 -11.067,-0.046Zm21.226,-33.292c3.272,-0.386 5.84,-1.795 6.817,-3.704c0.5,-1.023 0.659,-3.295 0.341,-4.841c-0.25,-1.204 -0.432,-1.522 -1.545,-2.613c-1.046,-1 -1.614,-1.364 -2.886,-1.795c-1.432,-0.478 -2.114,-0.546 -7.091,-0.637l-5.522,-0.113l0,13.907l4.045,0c2.205,0 4.841,-0.091 5.841,-0.204Z" style="fill:#77899a;fill-rule:nonzero;"/><path d="M81.606,122.898c0.614,-1.568 2.363,-6.318 3.159,-8.477c0.773,-2.159 3.909,-10.658 4.999,-13.521c0.228,-0.614 0.773,-2.091 1.205,-3.273c0.432,-1.159 0.841,-2.022 0.909,-1.908c0.068,0.113 0.704,1.681 1.409,3.476c0.727,1.818 2.136,5.455 3.181,8.068c5.409,13.771 6.25,15.93 6.25,16.089c-0,0.091 -4.795,0.159 -10.681,0.159l-10.681,0l0.25,-0.613Z" style="fill:#a9b4bf;fill-rule:nonzero;"/><path d="M108.444,123.239c-0.113,-0.159 -1.159,-2.705 -2.317,-5.636c-1.137,-2.932 -2.182,-5.545 -2.296,-5.795c-0.113,-0.25 -1.318,-3.318 -2.681,-6.818c-2.273,-5.84 -6.318,-16.157 -12.454,-31.747c-1.295,-3.34 -2.34,-6.295 -2.295,-6.59l0.068,-0.523l6.295,-0.068c6.159,-0.045 6.295,-0.045 6.545,0.409c0.136,0.273 0.75,1.886 1.363,3.591c0.591,1.704 2.637,7.408 4.545,12.658c4.136,11.43 6.409,17.771 7.295,20.225c0.341,1 0.773,2.159 0.955,2.568l0.318,0.75l0.591,-1.545c0.681,-1.796 4.045,-10.863 9.34,-25.18c2.09,-5.613 3.772,-10.112 4.658,-12.385l0.387,-1.023l12.021,0l0.069,0.5c0.068,0.478 -21.908,55.291 -22.589,56.381c-0.318,0.5 -0.409,0.5 -4.954,0.5c-3.432,0 -4.682,-0.068 -4.864,-0.272Z" style="fill:#77899a;fill-rule:nonzero;"/><path d="M144.441,123.011c-0.318,-0.454 -0.363,-3.522 -0.363,-28.315c-0,-18.726 0.068,-27.952 0.227,-28.247c0.227,-0.41 0.545,-0.432 5.636,-0.432c3.908,-0 5.476,0.068 5.681,0.272c0.386,0.387 0.386,56.563 -0,56.95c-0.205,0.204 -1.75,0.272 -5.545,0.272c-5.204,0 -5.295,0 -5.636,-0.5Z" style="fill:#77899a;fill-rule:nonzero;"/><path d="M160.121,123.148c-0.318,-0.318 -0.363,-3.204 -0.363,-28.293c-0,-18.839 0.068,-28.111 0.227,-28.406c0.227,-0.432 0.682,-0.432 19.203,-0.432c18.521,-0 18.975,-0 19.203,0.432c0.136,0.272 0.227,2.295 0.227,4.999c-0,3.818 -0.046,4.591 -0.364,4.886c-0.318,0.318 -1.84,0.364 -13.521,0.364l-13.158,-0l-0,11.817l12.294,-0c8.022,-0 12.431,0.091 12.726,0.227c0.409,0.227 0.432,0.523 0.432,5.181c0,3.545 -0.068,5.022 -0.273,5.227c-0.204,0.205 -3.34,0.273 -12.726,0.273l-12.453,-0l-0,13.408l14.067,-0c12.612,-0 14.067,0.045 14.203,0.363c0.273,0.705 0.159,9.749 -0.136,10.045c-0.205,0.204 -4.909,0.272 -19.748,0.272c-17.408,0 -19.521,-0.045 -19.84,-0.363Z" style="fill:#77899a;fill-rule:nonzero;"/><path d="M112.058,85.401c-0.932,-2.613 -1.886,-5.295 -2.136,-5.976c-0.25,-0.682 -0.841,-2.318 -1.296,-3.636c-0.477,-1.319 -1.75,-4.864 -2.84,-7.909l-1.977,-5.522l0.386,-1.182c0.204,-0.659 1.341,-3.727 2.5,-6.863c1.159,-3.113 2.545,-6.885 3.09,-8.363l1,-2.658l10.158,-0c5.613,-0 10.181,0.045 10.181,0.09c0,0.069 -2.068,5.704 -3.181,8.659c-1.387,3.704 -3.341,8.931 -4.023,10.794c-0.795,2.205 -4.317,11.749 -7.158,19.317c-0.864,2.318 -1.841,4.976 -2.159,5.908c-0.318,0.932 -0.659,1.773 -0.727,1.886c-0.091,0.091 -0.909,-1.954 -1.818,-4.545Z" style="fill:#a9b4bf;fill-rule:nonzero;"/></g></g></g></svg>