<svg id="Layer_1" data-name="Layer 1" xmlns="http://www.w3.org/2000/svg" viewBox="0 0 405.45 229.94"><defs><style>.cls-1{fill:#182072;}</style></defs><path class="cls-1" d="M424.4,205h17.05V347.16h9.21v8.71H424.4Z" transform="translate(-277.28 -205.03)"/><path class="cls-1" d="M458.26,213.74h-9.21V205h35.47v8.71h-9.2V355.87H458.26Z" transform="translate(-277.28 -205.03)"/><path class="cls-1" d="M535.3,264.33v-37.8A21.59,21.59,0,0,0,516,205.14c-.74,0-1.47-.09-2.21-.09H492.33v8.68h21.49a4.5,4.5,0,0,1,4.43,4.44v53.5a4.49,4.49,0,0,1-4.43,4.44h-4.44V221.54H492.33V355.86h21.49a18.15,18.15,0,0,0,2.21-.09,21.61,21.61,0,0,0,19.27-21.4v-34a21.38,21.38,0,0,0-7.76-16.49l-1.85-1.53,1.85-1.57A21.38,21.38,0,0,0,535.3,264.33Zm-17,78.41a4.49,4.49,0,0,1-4.43,4.43h-4.49V284.8h4.49a4.49,4.49,0,0,1,4.43,4.43Z" transform="translate(-277.28 -205.03)"/><path class="cls-1" d="M277.28,434.26V393.13h4.6V430h16.93v4.25Z" transform="translate(-277.28 -205.03)"/><path class="cls-1" d="M307.48,434.26V393.13h23.24v4.25H312.08v13H329.6v4.25H312.08V430h19.06v4.25Z" transform="translate(-277.28 -205.03)"/><path class="cls-1" d="M366.06,434.26V397.38H354.85v-4.25h27v4.25H370.67v36.88Z" transform="translate(-277.28 -205.03)"/><path class="cls-1" d="M390.3,434.26V393.13h14a12,12,0,0,1,8.74,3.54,11.59,11.59,0,0,1,3.59,8.74,12.24,12.24,0,0,1-7.84,11.68l9.91,17.17h-5.25L404.22,418H394.9v16.28Zm4.6-20.53h9a7.74,7.74,0,0,0,5.84-2.36,8,8,0,0,0,2.36-6,7.79,7.79,0,0,0-7.9-8H394.9Z" transform="translate(-277.28 -205.03)"/><path class="cls-1" d="M425.7,434.26l17.4-41.13h3.55l17.4,41.13H459.1l-4.25-10.15h-20l-4.25,10.15Zm11-14.4h16.41l-8.2-19.59Z" transform="translate(-277.28 -205.03)"/><path class="cls-1" d="M472.75,434.26V393.13h4.6v41.13Z" transform="translate(-277.28 -205.03)"/><path class="cls-1" d="M490.16,434.26V393.13h4L519,426.06V393.13h4.61v41.13H519.9L494.76,401v33.28Z" transform="translate(-277.28 -205.03)"/><path class="cls-1" d="M551.93,434.26V393.13H564.5a11,11,0,0,1,7.85,3,9.8,9.8,0,0,1,3.19,7.5,8.42,8.42,0,0,1-5.26,8.26c5.37,1.12,8.26,5,8.26,10.21a11.56,11.56,0,0,1-3.6,8.73,12.19,12.19,0,0,1-8.9,3.42Zm4.61-24h7.67a6.45,6.45,0,0,0,6.72-6.49,6.36,6.36,0,0,0-6.67-6.43h-7.72Zm0,19.71h9.2a7.83,7.83,0,0,0,8.2-7.9,7.15,7.15,0,0,0-2.36-5.49,8.09,8.09,0,0,0-5.9-2.19h-9.14Z" transform="translate(-277.28 -205.03)"/><path class="cls-1" d="M588.88,434.26V393.13h4.61V430h16.93v4.25Z" transform="translate(-277.28 -205.03)"/><path class="cls-1" d="M619.08,434.26V393.13h23.25v4.25H623.69v13h17.52v4.25H623.69V430h19.06v4.25Z" transform="translate(-277.28 -205.03)"/><path class="cls-1" d="M651.92,393.13h4.61v26.26c0,7.38,4.13,11.33,10.79,11.33s10.8-4,10.8-11.33V393.13h4.6v26.73c0,4.84-1.41,8.56-4.24,11.21s-6.55,3.9-11.16,3.9-8.32-1.3-11.15-3.9-4.25-6.37-4.25-11.21Z" transform="translate(-277.28 -205.03)"/></svg>